<svg xmlns="http://www.w3.org/2000/svg" viewBox="0 0 217.47 264.42"><defs><style>.cls-1{isolation:isolate;}.cls-2,.cls-5{fill:#b91518;}.cls-3{fill:#ed6400;}.cls-4{fill:#bb1719;}.cls-18,.cls-19,.cls-20,.cls-21,.cls-5{opacity:0.4;}.cls-12,.cls-14,.cls-17,.cls-18,.cls-19,.cls-20,.cls-21,.cls-5{mix-blend-mode:darken;}.cls-6{fill:#bb6823;}.cls-20,.cls-7{fill:#8c4b1b;}.cls-8{fill:#ffd200;}.cls-9{fill:#f9bfbe;}.cls-10{fill:#007333;}.cls-11{fill:#7abc00;}.cls-12{fill:#137f3f;}.cls-12,.cls-17{opacity:0.6;}.cls-13{fill:#fff;}.cls-14{fill:#d7dbe0;opacity:0.5;}.cls-15{fill:#c50f0f;}.cls-16{fill:#f80;}.cls-17{fill:#f47a00;}.cls-18{fill:#eabd00;}.cls-19{fill:#a30f0f;}.cls-21{fill:#66320e;}</style></defs><title>Asset 2</title><g class="cls-1"><g id="Layer_2" data-name="Layer 2"><g id="Layer_1-2" data-name="Layer 1"><path d="M172.49,21.33a11.06,11.06,0,0,0,12.29,5.47l-3.39-1.38c1.85,4.15,6.89,6.48,11.08,4.22,3.34-1.8,4.1-5.76,3.52-9.21l-3.69,3.69c7.82,3.17,14.79-5.22,9.64-12.18L200.86,16c9.91-7.1-4.47-21.48-12.32-12.27l4.71.61c-2.24-3-5.68-5-9.52-4.2-5.1,1.09-6.7,5.4-7.21,10L178,7.63c-4.59,2.73-7.73,7.65-5.82,13,1.29,3.61,7.09,2.05,5.79-1.6-1.51-4.22,2.45-4.6,4.14-7.28.65-1,.36-2.47.83-3.58,1.25-2.95,4.28-1.87,5.13-.74,1.06,1.41,3.33,2.22,4.71.61,2.64-3.09,6.41,1.88,5.05,2.85s-2.11,2.71-1.08,4.1c2,2.69-.61,4.27-2.86,3.36s-4,1.72-3.69,3.69c-.15-.88.17,1.43-.18,1.83-1.18,1.35-2.88-.19-3.45-1.46A3,3,0,0,0,183.18,21a5,5,0,0,1-5.52-2.72C175.76,14.94,170.57,18,172.49,21.33Z"/><path d="M68.35,59.24c9.48,5.88,22.09,4,27.63-6.3l-7.07.91c7.19,6.74,22.35,4.52,27.07-4.21h-7.77c5.77,8.87,21,9.11,27,.33L127,48.89c3.75,11.07,19.81,11.38,26.11,2.62h-7.77c4.64,7.4,16.51,9,22.86,3.14l-5.45.7c11.56,7.51,18.68-13.65,5.45-14.61l4.34,3.3c-2.59-6.5-9-9.48-15.11-5.11l6.16,1.61c-2.93-6.11-11-6.81-16.48-3.9l6.16,1.61C148,30.79,134.61,27.9,128,35.62l7.52,2c-2.35-6-6.68-9.29-13.17-9.68-5.54-.34-10.3,1-13.59,5.68l7.07-.91a15.91,15.91,0,0,0-22.8-1.22l7.07.91C95,23.3,80.52,26.79,77.41,35.53L84,32.84C78.78,30,72.83,30,68.27,34.13c-3.34,3-5.33,7.67-3.27,12l3.89-6.77c-12.29.44-11.08,21.39,1.74,20.52,5.75-.39,5.79-9.39,0-9-1.36.09-1.25.44-1.43-1-.21-1.62,1.15-1.59-.3-1.54,3.59-.13,5.37-3.68,3.89-6.77.83,1.73.35,0,1.86-1.06s3.21-.76,4.85.11a4.57,4.57,0,0,0,6.61-2.69c.6-1.67,5.27-2.78,6.29-1a4.56,4.56,0,0,0,7.07.91c3.14-2.89,7.53-1.76,10.07,1.22,2,2.37,5.54,1.28,7.07-.91,2.19-3.14,9.16-1.07,10.31,1.85s5.11,4.82,7.52,2c2.55-3,8.88-2.26,11.06.83a4.62,4.62,0,0,0,6.16,1.61c1.38-.74,3.44-.84,4.16.67a4.52,4.52,0,0,0,6.16,1.61c.9-.64,1.45-1.38,1.89-.27a4.76,4.76,0,0,0,4.34,3.3s-2-2.16-1.66-1.22c-.17-.42,2.53.22.75-.94a4.58,4.58,0,0,0-5.45.7c-2,1.81-7.27,1-8.73-1.32-1.91-3-5.8-2.74-7.77,0-1.62,2.25-8.57,2.73-9.66-.47a4.56,4.56,0,0,0-8.22-1.07c-2.07,3-9.55,2.6-11.45-.33-1.77-2.72-6.09-3.11-7.77,0-1.83,3.39-9.92,5.21-12.93,2.39a4.55,4.55,0,0,0-7.07.91c-3.26,6-9.87,6.46-15.32,3.08C68,48.4,63.43,56.19,68.35,59.24Z"/><path d="M12.43,121.88C7,128.17,4.31,138,10.94,144.52c6.2,6.13,15.52,4.41,19.55-3.14,1.46-2.72,2.72-5.9,1.76-9a18.16,18.16,0,0,0-4.6-6.86c-3.87-4-10.18-8.07-15.23-3.67-4.38,3.81,2,10.15,6.36,6.36-1.62,1.41-2.26.17-.63,1.13A14.63,14.63,0,0,1,21,131.64a14.42,14.42,0,0,1,2.06,2.43c.11.16.62.8.49.73q.23,1,.16-.16.13-1.43-.28.37c-1.17,2.43-2.6,6-5.8,3.49-3.4-2.69-1.1-7.68,1.14-10.26C22.57,123.88,16.23,117.49,12.43,121.88Z"/><path d="M18.79,132.94c-5.32,21.76-1.73,44.33,14.76,60.49,14,13.72,34.37,22.13,53.7,24.24,5.13.56,9.77-.11,14.84-1a130.69,130.69,0,0,0,25.57-6.83c17.84-7,31.35-20.47,41.82-36.24,4.62-7,4.88-15.06,5.8-23.27,1.28-11.54,3.65-28.41-3.73-38.49-1.85-2.53-4.57-4-7-5.94-2.85-2.34-5.47-4.94-8.37-7.23-7.33-5.8-15.76-8.31-25-9.32-9.43-1-18.95-.9-28.41-1.37-5.51-.28-11-.71-16.49-1.35-4.65-.54-9.32-1.56-14-1.46-4.85.11-9.8,1.36-13.31,4.91-2.95,3-4.66,5.38-8.91,6.62-5.15,1.5-10.66.26-15.72,2-3.85,1.3-6.64,4.07-8.86,7.37-1.91,2.85-2.26,4.93-5.69,5.67-3.62.78-7.7,2.39-8.79,6.33-.91,3.26.82,6.3,2.7,8.81,1.08,1.45,2.33,2.77,3.42,4.21.56.75,1.42,3.16,1.62,1.84-.85,5.67,7.82,8.11,8.68,2.39.88-5.9-3.26-9.28-6.44-13.64-.62-.84-1.1-1.62-1.27-1.61l0,.38q-1.08,1.35.13.56a15.4,15.4,0,0,0,2.38-.6c3.08-.67,5.26-1.56,7.32-4.06,1.65-2,2.63-4.44,4.24-6.46,2.68-3.37,5.92-3,9.9-3.18,7.14-.4,14.3-2.15,19.37-7.51,2.76-2.92,4.35-4.69,8.63-5,3.91-.27,7.84.56,11.7,1.07a289.7,289.7,0,0,0,29,2.06c8.71.26,17.78.14,26.26,2.38,7,1.84,11.88,5.85,17.16,10.5,3.8,3.35,8.53,5.41,10,10.48,1.63,5.54,1.54,11.59,1.33,17.31a145.22,145.22,0,0,1-3.28,27.77c.43-1.83-.21.12-.87,1.17-1.57,2.5-3.26,4.93-5,7.3a92.76,92.76,0,0,1-18.19,18.83c-12.56,9.46-29,13.44-44.37,15.56-6,.84-12.18-.39-18.05-1.87a92.52,92.52,0,0,1-28.66-12.61c-9.09-6.07-16.62-14.47-20.49-24.82-4.13-11-3.57-22.75-.81-34C28.84,129.7,20.17,127.3,18.79,132.94Z"/><path d="M79.85,62c-2.32-6.51-13.77-5.43-19.27-5.56l3.18,7.68c3.95-3.6,6.18-9.23,2.32-13.68-3.65-4.21-8.86-5-13.23-1.53l7.52,2a10.19,10.19,0,0,0-10.25-8.16c-5.08.1-9,3.66-11.33,7.93h7.77c-3.65-5.53-11.06-9.2-16.88-4.21-6.16,5.28-3.93,14.65,1,19.68l2-7.52c-5.67.79-18.41.31-16.89,9,.77,4.44,2.58,8.9,3.84,13.24l3.14-5.54C11.93,79,14.5,92.59,23.51,96.9V89.13c-3.89,2-13.41,5.15-13.29,10.64.06,2.81,2.54,5.2,4.09,7.34,4.69,6.47,9,13.46,14.2,19.57,4.83,5.73,12.24-.44,17.36-3.1L70.07,111c3.14-1.63,6.08-3.35,5.22-7.59-.76-3.76-2.81-7.6-4.15-11.21l-4.34,5.7c3.21-.43,8.23-.19,11-2,3.09-2,2.45-5.93,2.42-9.11L80,63.19c-.05-5.79-9.05-5.8-9,0l.13,14.1.09,9.51a25.16,25.16,0,0,0,0,3.1c.1.72-.35,1.74-.06.93l2.07-2.69c1.78-1,1.81-.27.58-.15-1,.1-2,.27-3,.4l-4.07.55c-2.61.35-5.47,2.63-4.34,5.7l2.07,5.6,1.29,3.49c.22.59.61,2.52.62,1.54l1.32-3.18c.67-.74-.57.31-1.14.61l-4.3,2.23-12.52,6.5-12.52,6.5c-1.43.74-2.89,1.45-4.3,2.23s-2.41.5,0,.29l3.18,1.32c.7.59-.59-.63-.92-1-1-1.26-1.88-2.59-2.82-3.88l-7.49-10.33c-1.78-2.45-3.49-5.78-5.71-7.87-.15-.14-.29-.57-.48-.67q-1.45-2.08-.87,4.56l1.44-.84c3-1.23,5.87-3.27,8.75-4.78s3-6.33,0-7.77c-.54-.26-6-4-2.86-5.13a4.58,4.58,0,0,0,3.14-5.54l-2-6.78-1.25-4.3a9.48,9.48,0,0,0-.52-1.79c-.49-.85.55-1.41,0,1l-2.07,2.69c.9-.58,3.3-.62,4.32-.79,2.75-.46,5.52-.87,8.28-1.25,3.5-.49,4.12-5.35,2-7.52-1.17-1.19-2.71-3-2-4.93.94-2.55,2.7-1.2,3.73.37,1.78,2.71,6.08,3.12,7.77,0,.73-1.34,4.4-5.85,5.13-1.92.68,3.68,5.15,3.88,7.52,2-2.21,1.77,1.18-.06.29,1.34L59,56a7.68,7.68,0,0,1-1.57,1.79c-3,2.72-.55,7.59,3.18,7.68,3.12.08,9.71-.61,12.44,1L71,63.79l.21.6C73.1,69.8,81.8,67.47,79.85,62Z"/><path d="M78.41,62.39C76.47,56.94,65,58,60.59,57.93L62.71,63C66.08,60,68.23,55.38,65,51.49c-3-3.62-7.44-4.47-11.11-1.53l5,1.32a8.69,8.69,0,0,0-8.8-7.06c-4.56.1-8,3.38-10,7.19h5.18c-3.12-4.73-9.42-8.15-14.52-3.91-5.61,4.67-3.34,13.13,1,17.56l1.32-5c-4.3.6-16.71.07-15.93,6.9.42,3.63,2.18,7.52,3.2,11l4.78,16.46c.85,2.94,1.3,6.7,5.12,6.91,2.82.15,6.11-.82,8.89-1.19L57,97.75l14.81-2c3.15-.42,6.38-.47,7-4.37.64-4.31-.09-9.26-.12-13.61l-.13-14.59c0-3.86-6-3.87-6,0l.22,24.34c0,.54-.36,3.28,0,3.69-1.12-1.16,4-1.38.85-1.69-3.35-.34-7.68,1-11,1.48L33.93,94.85c-.58.08-2.82,0-3.24.44-.17.18,1.07,2.5,1.07.38,0-3.59-2.44-8.39-3.43-11.83L23.9,68.59c-.23-.81-1-4.87-1.29-2-.26,2.48-.68.76.45,1.08.6.17,2.79-.49,3.36-.59,2.75-.46,5.52-.87,8.28-1.25,2.33-.32,2.75-3.57,1.32-5-1.26-1.28-3.55-4.31-2.4-6.39,1.88-3.39,4.64-2.76,6.47,0a3,3,0,0,0,5.18,0c1.29-2.38,6.83-7.22,7.87-1.56.45,2.45,3.43,2.59,5,1.32.68-.54,2.54,1.08,2.64,1.64.15.85-1.78,2.45-2.34,3-2,1.81-.37,5.06,2.12,5.12,2.87.07,5.75.2,8.61.51a17.74,17.74,0,0,0,2.86.37c1.52-.11,1.3,1.22.57-.83C73.91,67.59,79.71,66,78.41,62.39Z"/><path d="M57.51,201.23a70.83,70.83,0,0,0,33.12,12.29c2.57,8.5,9.56,9.94,13.92,10a20.54,20.54,0,0,0,16.33-7.54H122a67,67,0,0,0,10.19-.77c-12.7,14.15-31,22.25-44.45,22.21h0c-5.67,0-13.28-1.49-17.35-8.39-5.38-9.13-14-14.82-22.6-14.85-9,0-15.26,6.29-15.6,15.74C32,235,34.63,240.57,39.85,246c8.77,9.12,25.82,18.36,44.12,18.42a51.18,51.18,0,0,0,11.78-1.31c32.46-7.57,61.6-33.43,70.15-62,31-23.54,28.81-88.56,18.65-117.58q-1.06-3-2.29-5.91a32.27,32.27,0,0,0,3.7.23,28.55,28.55,0,0,0,8.22-1.15C210.29,72,217.6,60,217.47,53.5a7,7,0,0,0-5.18-7c-1.29-.33-3.4-.49-11.89-.52h-9.17c-3.74,0-7.73,0-11.71,0-6.4,0-15.37-.1-21.75-.49a61.57,61.57,0,0,0-35-11.91c-28.22-1-53.26,11.15-66.87,32.08C51.34,70,42.72,74.82,40.39,75.33a7.47,7.47,0,0,0-6,8.1c.29,2.77,2.25,5.88,6.63,7.34a21,21,0,0,0-1.44,1.56c-3,3.57-4.25,7.64-3.54,11.46A13.64,13.64,0,0,0,36.6,106a71.56,71.56,0,0,0-9.33,45.76C30.61,170.13,40.52,186.67,57.51,201.23Z"/><path class="cls-2" d="M37.82,65.92c-3.08-2.08-6.41-4.51-7.18-8.15a10.42,10.42,0,0,1,.09-4.14A7.37,7.37,0,0,1,32,50.52a5.56,5.56,0,0,1,5.88-1.69,8.59,8.59,0,0,1,4.84,4.1c1.32-2.78,3.75-5.23,6.79-5.68S56,49,56,52.09C59,48.91,64,53.7,63.76,55.58a8.3,8.3,0,0,1-2.66,4.87c-1.34,1.33-2.92,2.39-4.34,3.64Z"/><path class="cls-3" d="M20.06,66.12a.94.94,0,0,1,.75-1.06,266.67,266.67,0,0,1,28.44-3.76c13.92-1.09,23,.45,25.52,1a.94.94,0,0,1,.75.92l.26,28.2a1,1,0,0,1-.82,1l-44.7,6a1,1,0,0,1-1.07-.82Z"/><polygon class="cls-4" points="40.38 59.77 46.61 96.15 57.3 94.71 57.35 57.49 40.38 59.77"/><circle class="cls-5" cx="29.01" cy="70.59" r="2.58" transform="translate(-9.14 4.49) rotate(-7.65)"/><circle class="cls-5" cx="35.81" cy="82.93" r="2.51" transform="translate(-10.72 5.51) rotate(-7.65)"/><circle class="cls-5" cx="38.49" cy="67.74" r="2.17" transform="translate(-8.68 5.73) rotate(-7.65)"/><circle class="cls-5" cx="60.38" cy="71.29" r="2.29" transform="translate(-8.95 8.67) rotate(-7.65)"/><circle class="cls-5" cx="63.31" cy="82.17" r="1.68" transform="translate(-10.38 9.16) rotate(-7.65)"/><circle class="cls-5" cx="67.64" cy="65.4" r="2.88" transform="translate(-8.11 9.59) rotate(-7.65)"/><path d="M123,168.85c.92-.78,4.09-3.25,4.64-3.19.95.09,3.33,5.81,3.89,7.3a41.25,41.25,0,0,1,2,22.17c-1,6-3.33,11.18-5.21,16.85a4.77,4.77,0,0,1-.67,1.1c1.07-1.07.94-.15-.13-.69a12,12,0,0,0-2.91-.61,7.42,7.42,0,0,0-4.92.83c-4.27,2-8.74,4.93-13.41,5.92a6.7,6.7,0,0,1-6.1-1.2c-2.78-2.47-1.79-5.57-1.29-8.73a42.38,42.38,0,0,0,.7-11.06c-.4-3.87-1.92-7.3-3.09-11-2.06-6.45-3.87-13.12-2.2-19.82.66-2.66.89-5.46,3.83-6.28,3.43-.95,8.35-.08,11.61,1.28a12.53,12.53,0,0,1,4.86,3.58,9,9,0,0,1,.91,1.57c-.51-.94-.13-.34,0,0,1.59,5.56,10.28,3.2,8.68-2.39-1.7-5.93-7.49-10-13.07-11.78-5.27-1.71-12.35-2.44-17.54-.17-4.54,2-6.48,6.18-7.65,10.73a35.54,35.54,0,0,0-.6,15.69c1.13,6.52,4.56,12.7,5.32,19.18.7,5.91-2.39,12-1.15,17.78A15.21,15.21,0,0,0,99.46,227c8.85,2.79,18.25-3.36,25.86-7.18l-3.47.45c7,2.41,12.41.57,15.41-6.07a69.45,69.45,0,0,0,6.09-27c.12-8.93-2.63-20.27-8.62-27.17-5.46-6.29-12.8-2-18,2.39C112.24,166.22,118.63,172.56,123,168.85Z"/><path d="M32,162.76a15.43,15.43,0,0,1,.94-1.89,13.07,13.07,0,0,1,1.16-1.8q-1.78-.21-.3.23c3.29,1.12,6.45,4.57,8.7,7.08,4.8,5.36,7.12,12.35,8.56,19.29a28,28,0,0,1,.85,7.35q-.18,1.57.44-.73a5.91,5.91,0,0,1-1.79.71,7.45,7.45,0,0,0-2.57.78c-3.74,2.33-5.64,8-8.72,11.1-2.13,2.15-5.31,3.77-7.73.7-1.59-2-2-5.64-3.06-8-3.06-7-9.23-10.92-14-16.64a21.48,21.48,0,0,1-4.8-9.05c-1-3.89-.48-5,3.41-6.81,2.87-1.34,6.48-2.41,9.6-1.3a4.6,4.6,0,0,1,1.81,1c4.09,4.12,10.45-2.25,6.36-6.36-6.86-6.91-19.36-4-26.17,1.28-10.33,8-1.29,22.7,5.42,29.87,2.22,2.37,4.86,4.33,7.06,6.7s3.33,5.27,4.37,8.25c2,5.73,4.56,10.31,11.14,11.59,10.35,2,16.52-9,21.49-16.13L51.47,202c6.33-1.06,9.81-5,9.38-11.27a59.76,59.76,0,0,0-6.3-22.65c-3.55-7-10.56-14.85-18.19-17.43-6.94-2.35-10.82,4.1-13,9.71C21.2,165.76,29.9,168.1,32,162.76Z"/><path d="M75.4,60.3Q82.89,53.07,90,45.51c7.76-8.17,14.32-17.52,22.4-25.35,4.48-4.34,9.68-8.31,15.73-10.14,6.68-2,13.24-.64,19.55,2,12.31,5.09,24.34,12.87,38.15,8.47l-5.54-5.54c.57-1.49-.82,1.47-1.25,2.12a19.85,19.85,0,0,1-5.44,5.46c-5.26,3.55-11.61,3.36-14.84,9.59-3.72,7.16-1.69,17,1.05,24.18l7.52-4.38c-13.81-10.69-32.44-17.16-49.91-16.1-17,1-35,7.39-48.44,18.14-4.52,3.62,1.88,10,6.36,6.36-.13.11-.85.62.16-.11C76.38,59.6,77.2,59,78,58.47a86.39,86.39,0,0,1,8.86-5.11,79.58,79.58,0,0,1,30.57-8.58,64.89,64.89,0,0,1,31,6.3A83.28,83.28,0,0,1,158,56.28c.86.54,1.69,1.12,2.54,1.69.44.29,2.23,1.66.46.29,3.08,2.38,9.33.36,7.52-4.38s-5.47-15.8-.17-19.32c2.49-1.66,6.07-2,8.75-3.61a28.8,28.8,0,0,0,6.64-5.35A26.34,26.34,0,0,0,189,17.31c1.22-3.21-2.46-6.52-5.54-5.54-14.64,4.66-27.72-8.21-41.47-11-12.68-2.61-24.26,2.63-33.64,10.94-8.85,7.84-15.63,17.89-23.74,26.48Q77,46.22,69,53.93C64.86,58,71.23,64.32,75.4,60.3Z"/><path class="cls-6" d="M27.67,161.57s2.14-5.61,4.76-6.89,11.41,5.37,16,12c6.33,9,8.94,26,7.63,28.15s-5.83,2.87-5.83,2.87-6,8.61-8.27,10.89c-2.62,2.64-8,5.54-13.5.41-2.6-2.43-2.91-11.59-9.21-16.9C14.48,188,7.19,180.48,5.94,175.41c-1.4-5.66-3.38-9.69,3.21-13.35C21.59,155.13,27.67,161.57,27.67,161.57Z"/><path d="M29.12,162c1.13-2.87,2.65-6.45,6.21-5.26s6.89,4.87,9.3,7.55C49.8,170,52.42,177.41,54,184.87c.49,2.34,1.54,5.75,1,8.15-.76,3.1-3.45,2-5.41,3.35-3.37,2.32-5.2,7.69-8.11,10.63-3.4,3.43-9.17,5.13-12.44.09-1.5-2.31-2-5.47-3.06-8-2.9-6.8-8.91-10.54-13.56-16a24.74,24.74,0,0,1-5.57-10.38c-1.3-5.18-.24-7.75,4.79-10.2,4.22-2,11.2-3.73,15,.14a1.5,1.5,0,0,0,2.12-2.12C22.17,153.9,3.78,158.09,3,168c-.51,6.88,3.82,13.48,8.16,18.32,3,3.33,7,6,9.61,9.64,2.4,3.37,3.19,7.38,4.82,11.09a10.21,10.21,0,0,0,14.18,5c5.35-2.83,7.31-8.88,11.33-13,.57-.58.56-.36-.28.06a8.09,8.09,0,0,1,1.3-.29,9.52,9.52,0,0,0,3.64-1.63A4.83,4.83,0,0,0,57.92,193c.47-6.55-2-14.17-4.45-20.11-3.16-7.62-9.1-15.09-16.63-18.8-5.74-2.83-8.66,2.08-10.62,7.05C25.51,163,28.41,163.74,29.12,162Z"/><path class="cls-7" d="M5.18,174.67c-2-4.73-.61-8.32,3.63-11.13s16.34,9.24,24.39,22.87c12.79,21.68,4.31,23.82,4.31,23.82s-6.44,4.39-9.94-5c-1.78-4.78-3.93-9.22-8.27-13.12C7,181,7.17,179.3,5.18,174.67Z"/><path d="M6.62,174.27c-1.27-3.46-.22-10.28,4.74-9.44,2.45.41,5,3,6.67,4.59A78.58,78.58,0,0,1,31.9,187.18c2.41,4.06,10.76,16.87,5.37,21.54-6.27,5.44-10.62-10.25-13.55-14C18,187.2,10.25,182.83,6.47,173.92c-.75-1.77-3.34-.24-2.59,1.51A30.58,30.58,0,0,0,8,182.9c4.45,5.59,10.81,9.51,14.7,15.51,2.79,4.32,3.56,11.79,9,13.88a7.07,7.07,0,0,0,4.15.24c.52-.12,2.51-1.08,2.1-.86,3.66-2,4.23-5.55,3.57-9.57-1-6.09-4.3-12-7.44-17.17a81.21,81.21,0,0,0-13.9-17.63c-2.69-2.5-7.16-6.72-11.26-5.45-5.64,1.75-6.91,8.44-5.16,13.22C4.39,176.87,7.29,176.09,6.62,174.27Z"/><path class="cls-8" d="M110.15,85.55c-19.86-12.86-33.67-1.23-35.8,8.21,0,0,8.75,11.84,20.6,9.4C109.68,100.12,110.15,85.55,110.15,85.55Z"/><path class="cls-9" d="M82.19,82.23l4.49-4.62L93,79.87s3.33,9.69-2.8,11C84.37,92.13,82.19,82.23,82.19,82.23Z"/><path d="M89.18,93c-5.23,0-8.06-6.3-8.95-10.33L80,81.61l6.13-6.31,8.49,3,.31.91c.23.67,2.18,6.64,0,10.56a6.2,6.2,0,0,1-4.24,3A7.06,7.06,0,0,1,89.18,93ZM84.42,82.8c.65,2.11,2.44,6.74,5.4,6.11a2.19,2.19,0,0,0,1.59-1.09c.93-1.65.44-4.68,0-6.41l-4.2-1.49Z"/><path d="M30.89,91.49c-2.16-.57-4.55-1.06-6.17-2.69-1.4-1.41-1.7-2.29-.9-4.27Q23.67,81.69,26,83a3.71,3.71,0,0,1,2.79,1.21,3,3,0,0,0,4.41-1.79c.31-1.94,3.12-8.83,5.84-4.18a3,3,0,0,0,5.18,0c.32-.52.86-.37,1.39-.19,1.18.4.88.82.76,1.93a15.76,15.76,0,0,1-2.13,4.47c-1.13,1.08-3.7,1.75-5.09,2.4l-10.53,5c-3.49,1.65-.45,6.82,3,5.18l9.25-4.37c2.57-1.21,5.74-2.11,7.69-4.2,3.26-3.49,6.11-11.17,1.63-14.64C46.58,71,41.46,71.18,39,75.19h5.18a8.3,8.3,0,0,0-9.47-4c-4.35,1.22-6.66,5.4-7.34,9.58L31.78,79C26.46,75.16,17.56,76.14,17,84S22.65,95.53,29.3,97.28C33,98.26,34.63,92.47,30.89,91.49Z"/><path d="M17.75,100.1c.2,1.81-1.52,1.13.09.7a7,7,0,0,0,1.41-.81q2.18-1.24,4.39-2.44Q30,94.09,36.61,91a117.39,117.39,0,0,1,15-6c2.61-.81,6.3-.95,8.69-2.19a6.06,6.06,0,0,0,1.06-.18L59.06,81.1l.05.14c-.1.27.54,1.37.6,1.63A72.48,72.48,0,0,0,62.35,90l2.9,7.83c.68,1.84,1.21,4.94,2.41,6.51.11.15.25,1,.39,1.05l.95-2.24-.08,0c-.08,0-.34.23-.43.23-1,0-3.19,1.66-4.11,2.13l-13.79,7.16L36.48,120c-.82.42-3.14,1.15-3.7,1.92-.44.61-2.2-.05.8.67,2.64.64,1.07.37.76-.59-.57-1.79-2.88-4-4-5.48l-5.61-7.73L17.34,98.58c-2.25-3.1-7.45-.1-5.18,3,5.79,8,11.17,16.54,17.49,24.1,2.61,3.12,5,2,8,.45l15.52-8.05,15.91-8.25c3-1.54,5.59-2.8,4.51-6.74-1.52-5.58-4.09-11.07-6.1-16.49-1.18-3.2-2.19-9.72-6.49-9.94-3.06-.15-6.83,1.31-9.69,2.15a125.31,125.31,0,0,0-17.72,7Q25.4,89.66,17.5,94.08c-2.38,1.34-6.12,2.69-5.75,6C12.17,103.89,18.17,103.93,17.75,100.1Z"/><path class="cls-10" d="M30.1,94.38c-3.32-.84-7-1.91-8.77-4.83a9.61,9.61,0,0,1-1.21-3.62,6.8,6.8,0,0,1,.1-3.08,5.12,5.12,0,0,1,4.57-3.3,7.92,7.92,0,0,1,5.48,2c.28-2.82,1.62-5.71,4.11-7s6.17-.49,7.21,2.15c1.56-3.67,7.37-1.06,7.78.63a7.65,7.65,0,0,1-.79,5.06c-.75,1.57-1.79,3-2.63,4.51Z"/><path class="cls-11" d="M14.75,100.1a.87.87,0,0,1,.32-1.15A245.78,245.78,0,0,1,38.56,86.81C50.3,81.52,58.61,80,61,79.69a.87.87,0,0,1,.94.57l9,24.38a.88.88,0,0,1-.42,1.08l-36.9,19.15a.88.88,0,0,1-1.18-.37Z"/><polygon class="cls-10" points="30.39 88.26 47.14 117.86 55.97 113.28 44.41 80.98 30.39 88.26"/><circle class="cls-12" cx="27.18" cy="102.82" r="2.38" transform="translate(-44.31 24.08) rotate(-27.43)"/><circle class="cls-12" cx="36.93" cy="111.4" r="2.32" transform="translate(-47.16 29.53) rotate(-27.43)"/><circle class="cls-12" cx="34.52" cy="97.39" r="2" transform="translate(-40.98 26.85) rotate(-27.43)"/><circle class="cls-12" cx="54.61" cy="93.64" r="2.11" transform="translate(-37 35.68) rotate(-27.43)"/><circle class="cls-12" cx="60.54" cy="102.16" r="1.55" transform="translate(-40.25 39.37) rotate(-27.43)"/><circle class="cls-12" cx="59.07" cy="86.27" r="2.66" transform="translate(-33.1 36.91) rotate(-27.43)"/><path class="cls-13" d="M23.13,134.13c-4.92,19.31-2.64,36.93,10.07,52.29S72.54,213,92.46,213.54c0,0,28.75-2.73,46.35-14.22s29.43-32.2,29.43-32.2,9.35-46.76-2.33-54.61-14-16.64-35.56-18.72c-14.23-1.37-25.28-.34-45.91-2.85-6.79-.82-17.82-3.57-23.07,3.33-3.76,4.95-8.89,8.08-21.14,8s-11.3,12.61-17.72,13.53C5.21,118.31,24.67,128.08,23.13,134.13Z"/><path d="M21.68,133.73c-5.07,20.73-1.73,42.17,14,57.57,13.39,13.12,33.07,21.34,51.57,23.37,4.89.53,9.21,0,14-.87A130.69,130.69,0,0,0,126.85,207c17.06-6.67,30-19.8,40-34.86,4.32-6.5,4.53-14.07,5.39-21.76a125.35,125.35,0,0,0,.87-21.52c-.32-5.13-.9-11.26-4.2-15.46-1.74-2.21-4.34-3.56-6.48-5.33-2.84-2.35-5.46-5-8.37-7.23-6.69-5.24-14.48-7.52-22.84-8.44-9.43-1-18.95-.9-28.41-1.37-5.51-.28-11-.71-16.49-1.35-4.64-.54-9.33-1.56-14-1.46-4.08.09-8.22,1-11.19,4-3.31,3.34-5.42,6-10.24,7.39-5.13,1.48-10.74.2-15.72,2a14.53,14.53,0,0,0-7.06,6c-2.29,3.4-3.21,6.12-7.48,7-2.49.54-5.9,1.41-6.7,4.23-1.72,6.09,8.56,9.38,7.74,14.87-.28,1.89,2.61,2.7,2.89.8.69-4.61-3.71-8-6.14-11.33-.6-.83-1.65-2.05-1.58-3.12.13-1.85,3.09-2.24,4.58-2.56,2.65-.57,4.25-1.11,6-3.29,1.46-1.81,2.38-4,3.77-5.86,3.3-4.42,7.39-4.37,12.49-4.66,6.37-.36,12.73-1.86,17.25-6.64,3.29-3.48,5.65-5.6,10.75-5.86,3.93-.2,7.82.56,11.7,1.07a284.93,284.93,0,0,0,29,2.06c9,.27,18.32.18,27.06,2.49,7.48,2,12.81,6.27,18.48,11.28,4.27,3.77,9.1,6.06,10.8,11.81s1.66,12.14,1.44,18.11a178.63,178.63,0,0,1-1.81,19.11c-.43,3-.56,6.57-1.58,9.47a15.24,15.24,0,0,0-1.18,1.89c-1.57,2.5-3.26,4.93-5,7.3a96.78,96.78,0,0,1-19,19.67c-12.89,9.74-29.62,13.86-45.39,16.09-16.47,2.33-35.62-5.84-49-14.79-9.77-6.52-17.74-15.49-21.87-26.61-4.29-11.55-3.7-23.84-.81-35.64C25,132.66,22.14,131.86,21.68,133.73Z"/><path class="cls-14" d="M37.79,192.63S66,205.9,81.48,204.92s17.39-4.5,17.39-4.5l-2.68,11.19a167.77,167.77,0,0,1-32.1-3C45.81,205.26,37.79,192.63,37.79,192.63Z"/><path class="cls-15" d="M64.19,189a28.2,28.2,0,0,1-8.07-.77c-.66-8.62-1-19.39,3.83-38a273.23,273.23,0,0,0,15.76,35.83,32.19,32.19,0,0,1-11.52,3M51,186.54c-22.28-10.78-25.84-35.15-17.83-53.65-.16,18.5,4.68,33,17.83,53.65m30.61-3.83c3.94-15.32,10.24-29.9,14.1-45.24a30.85,30.85,0,0,0,.51-12.79c10,16.52,8.22,41.75-14.61,58M36.52,126.77c10.54-15.41,30.3-27.68,51.27-11.53-.14,0-13.7.29-4.21,15.08,5.13,8,5.32,14.32.8,27.05-1.67,6.29-2.17,8.19-3.69,14.68-6.12-15.68-11.11-29-14.89-46,3.69-.45,7.88-1,5.79-3.38-.26-.3-19.7,1.15-19.88,1.18-1.49.22-1.8,2-1.8,2-.19,1.38.06,1.37,4.27,1.22a115.14,115.14,0,0,0,3.93,17.5c-2.17,8.17-4.42,16.62-5,29.78-8.41-17.79-11.66-30.09-12-45.37,1.27-.73,2.94-.39,4.08-1.5.77-.76,1.18-2.49.25-2.72-3.32-.8-5.93,1.51-8.94,2.06m31.25-22.4c-33.49,2-56.4,51.8-27.47,78.86,29.32,27.43,67.16-6.2,66.64-38.25-.4-24.85-20.58-41.06-39.18-40.61"/><path class="cls-8" d="M120.2,182.5l-.06-.23c-.18-.71-.37-1.44-.59-2.2-1.82-6.66-10.56-19.92-17.28-19.95a5.18,5.18,0,0,0-2.94.93c-5.89,3.9-4.73,11-2.28,21.37.6,2.57,1.23,5.22,1.6,7.7a57.39,57.39,0,0,1,.22,10.3c-.2,5.4-.4,11,1.92,13.41,1,1.06,2.6,1.58,4.85,1.58a14.89,14.89,0,0,0,1.86-.12l.53-.08c.41-.07.81-.15,1.2-.24l.51-.14a12.19,12.19,0,0,0,1.15-.41l.33-.13a12,12,0,0,0,1.35-.71l.12-.08a12.28,12.28,0,0,0,1.07-.76l.29-.24q.41-.35.79-.72l.25-.25q.42-.44.79-.9l.09-.11c.28-.35.53-.7.77-1.06l.16-.25c.17-.26.33-.53.48-.79l.2-.37c.12-.22.22-.43.33-.64l.19-.4c.09-.19.16-.36.24-.54.16-.37.3-.74.42-1.07l0-.06c.08-.24.16-.46.22-.67h0a16.21,16.21,0,0,0,.44-1.67,2.41,2.41,0,0,1,.08-.32,32.5,32.5,0,0,0,1.16-18.18C120.51,183.86,120.36,183.19,120.2,182.5Z"/><path class="cls-16" d="M180.5,53.47c-7.43,0-18.07-.13-24.67-.68a9.31,9.31,0,0,0-1.41,0A17.85,17.85,0,0,0,158,56.55l.48.41c12.93,11.1,22.68,13.46,28.58,13.48h0a21.12,21.12,0,0,0,6.07-.85c9.12-2.7,14.73-8.33,16.95-12.69a7.69,7.69,0,0,0,1-3.21c-1.24-.13-4.46-.2-9.6-.22H192.3C188.54,53.48,184.51,53.49,180.5,53.47Z"/><path class="cls-16" d="M158.82,202.06a75.34,75.34,0,0,1-10.91,5.35c-11.58,21-36.65,37.12-58.35,37.45C78.35,245,69.68,240.76,65,232.81c-5.26-8.92-13.33-12.23-18.59-10.9-3.53.9-5.56,3.83-5.72,8.26-.14,3.89,3.27,9.08,9.13,13.91,10.53,8.67,28.62,15.67,45.3,11.78C124,249.13,149.91,227,158.82,202.06Z"/><path class="cls-17" d="M38.37,221.22c3,1.65,5.84,10.3,7.34,12.1A45.63,45.63,0,0,0,56.26,242c3,2,5.69,4.49,9,6.18,7,3.59,15.28,5,23.12,5.05,8.83,0,17.24-.93,24.74-5.8,3.93-2.55,6.31-5.17,11.08-5.59.77-.07,11.26-2.56,10.5-3.1,3.7,2.64-4.89,6.18-7.12,7.67a154.32,154.32,0,0,1-18,10.33,30.14,30.14,0,0,1-9.63,3,113.51,113.51,0,0,1-25,.13c-3.79-.35-6.12-.44-9.54-2.19a79.83,79.83,0,0,0-10.13-4.49c-7.65-2.66-11.39-4.6-15.41-12-2.4-4.44-7.47-12.41-5-17.69C36,221,37.18,220.57,38.37,221.22Z"/><path class="cls-14" d="M96.41,97.26s-2.29,17.86,26.9,18.31c20.34.32,24.16,18.86,13.22,30.52-12.22,13,0,16.34,0,16.34s10.67-2.15,15.19-2.14a91.2,91.2,0,0,1,10,.76s3.36-12.95,3.19-16.6S162.42,122,162.42,122l-16.27-13.54C135.46,101.61,108.16,91.81,96.41,97.26Z"/><path class="cls-8" d="M178.57,86.05A84.16,84.16,0,0,0,171,69.94a71.78,71.78,0,0,1-15-10.15l-.45-.38c-6.1-5.12-5.25-7.44-5-8.21a2.88,2.88,0,0,1,1.16-1.45,54.74,54.74,0,0,0-28.17-8.69c-25.83-.87-48.51,10-60.68,29.19-3.33,5.24-4.49,10-3.35,13.79a8.2,8.2,0,0,0,4.13,5.08c2.35,1.05,17.33-4.09,21.7-12A1.87,1.87,0,0,1,88,76.48c10.19,6.32,21.67,3.49,31.63.34a1.86,1.86,0,0,1,2.16,2.73,48.73,48.73,0,0,1,19,3.19,1.87,1.87,0,1,1-1.38,3.47c-14.29-5.7-33.68-3-44.14,6.15-3.59,3.14-5.15,6.17-4.4,8.55s3.94,4.37,7.88,4.8c3,.32,7.48-.67,12.27-1.71,7.38-1.61,15.74-3.44,23.18-1.87,12,2.54,20,9.8,32.09,20.79l1.47,1.34a1.86,1.86,0,0,1-2.45,2.8,68,68,0,0,1-.91,34.18,15.54,15.54,0,0,1,4.68,3.91,1.87,1.87,0,0,1-3,2.27c-3.21-4.18-11.41-6.64-19.53-5.85A27.93,27.93,0,0,0,123.78,177c.23.62.42,1.2.56,1.71,3.16,11,2.38,17.62-.06,25.31a21.49,21.49,0,0,1-1.4,4.46c8.21.05,22.72-1.7,38.18-12.27C190.34,176.22,188,113,178.57,86.05Z"/><path class="cls-18" d="M150.22,52.15c2.2,1.06,4.52,5.27,6.05,7.16a43.21,43.21,0,0,1,6.16,9.13c1.65,3.65.69,6.7,1.41,10.39s5.9,4.13,9.39,3.23c6.19-1.59,2.44-11-.15-14.52-3.06-4.13-8-4.57-11.73-7.7C158.95,57.83,155.67,51.71,150.22,52.15Z"/><path d="M82.22,68.31c-3,2.22-2.09,5,1.23,5.4s3.57.65,6.64-1.64c3.33-2.48,3.76-6.62,0-6.22S83.89,67.07,82.22,68.31Z"/><circle cx="71.32" cy="68.88" r="3.73" transform="translate(2.18 139.96) rotate(-89.8)"/><circle cx="114.48" cy="58.67" r="3.73" transform="translate(55.42 172.94) rotate(-89.8)"/><path class="cls-15" d="M116.22,103.9c.26-11.18-3.16-17-8.88-19.53l16.95-4.16,43.61,10,13.16-1.41c2-1.91,8.9,31.59,6.05,53.5-2.48,19.12-12.32,42.9-12.32,42.9l-16,15.06L129.5,210.1l-11.69,1.77,6.26-19.52-2.29-12,0-5s6.45-11.23,14.76-13,14.18-3.52,19.71-2.12,6.51,0,6.51,0,2.13-5.13,2.17-15.88A120.85,120.85,0,0,0,162.42,122s-13.14-13.89-23.55-16.53A50.06,50.06,0,0,0,121,103.92Z"/><path d="M56.54,86.58a11.71,11.71,0,0,0,5.64,6c4.59,2.06,19.56-3.81,25.47-12A29.39,29.39,0,0,0,101.74,84a36.12,36.12,0,0,0-8.92,5.59c-6.12,5.34-6.37,9.74-5.51,12.48,1.22,3.89,5.56,6.79,11,7.39,3.57.39,8.16-.61,13.47-1.77,7-1.53,15-3.26,21.61-1.86,9.89,2.08,16.76,7.61,26.71,16.6a64.36,64.36,0,0,1,.84,37.27,33.51,33.51,0,0,0-14.74-1.79,31.78,31.78,0,0,0-24.34,14.93c-3.85-7.6-11.34-17.6-19.61-17.62a10.13,10.13,0,0,0-5.71,1.75c-9.23,6.1-6.65,17-4.38,26.66.61,2.58,1.18,5,1.53,7.3a54.06,54.06,0,0,1,.17,9.38c-.24,6.44-.48,13.1,3.3,17,2,2.05,4.8,3.1,8.42,3.11a17.63,17.63,0,0,0,15.24-8.2c.66,0,1.36,0,2.12.05a67,67,0,0,0,19.42-2.92c-11.73,18.1-33.74,31.52-52.92,31.82-6.88.13-16.19-1.58-21.29-10.22-6.19-10.5-16.12-14.3-22.73-12.62-5.2,1.32-8.31,5.6-8.53,11.74-.18,5.11,3.64,11.28,10.49,16.92,9,7.41,23.22,13.68,37.73,13.73A46.8,46.8,0,0,0,96,259.49c31.68-7.39,60-32.8,67.76-60.59,17.16-12.17,22.7-36.47,24.3-54.81,2-23.39-1.5-46.62-5.93-59.27a91,91,0,0,0-5.47-12.53A32.85,32.85,0,0,0,187,74.17h0a24.82,24.82,0,0,0,7.14-1c14.58-4.32,20.71-15.06,20.62-19.59a3.31,3.31,0,0,0-2.37-3.44c-.9-.23-3-.38-11-.4H192.3c-3.76,0-7.78,0-11.79,0-6.87,0-16.5-.11-23-.57a58.31,58.31,0,0,0-33.76-11.83c-22.64-.77-43,7.14-56.63,21.53a62.27,62.27,0,0,0-6,7.45c-4.19,6.22-6.42,15-4.53,20.25m62.95,116.1a2.41,2.41,0,0,0-.08.32c-.09.51-2.39,12.45-13.77,12.41-2.25,0-3.83-.53-4.85-1.58-2.32-2.42-2.12-8-1.92-13.41a57.39,57.39,0,0,0-.22-10.3c-.37-2.48-1-5.13-1.6-7.7C94.6,172,93.44,164.95,99.33,161a5.18,5.18,0,0,1,2.94-.93c6.71,0,15.45,13.29,17.28,19.95C122.41,190,121.73,195.66,119.49,202.68ZM95.12,255.86c-16.68,3.89-34.78-3.11-45.3-11.78-5.86-4.82-9.27-10-9.13-13.91.16-4.43,2.19-7.36,5.72-8.26,5.26-1.34,13.33,2,18.59,10.9,4.69,7.95,13.36,12.2,24.56,12.06,21.7-.34,46.76-16.43,58.35-37.45a75.34,75.34,0,0,0,10.91-5.35C149.91,227,124,249.13,95.12,255.86Zm83.46-169.8c9.41,26.9,11.76,90.16-17.52,110.17-15.46,10.57-30,12.32-38.18,12.27a21.49,21.49,0,0,0,1.4-4.46c2.44-7.7,3.22-14.34.06-25.31-.14-.51-.33-1.08-.56-1.71a27.93,27.93,0,0,1,22.82-15.47c8.11-.79,16.31,1.67,19.53,5.85a1.87,1.87,0,0,0,3-2.27,15.54,15.54,0,0,0-4.68-3.91,68,68,0,0,0,.91-34.18,1.86,1.86,0,0,0,2.45-2.8l-1.47-1.34c-12.07-11-20-18.25-32.09-20.79-7.43-1.57-15.8.26-23.18,1.87-4.79,1-9.31,2-12.27,1.71-3.95-.43-7.11-2.36-7.88-4.8s.82-5.41,4.4-8.55c10.46-9.14,29.85-11.84,44.14-6.15a1.87,1.87,0,1,0,1.38-3.47,48.73,48.73,0,0,0-19-3.19,1.86,1.86,0,0,0-2.16-2.73c-10,3.15-21.45,6-31.63-.34a1.87,1.87,0,0,0-2.62.68c-4.38,7.89-19.36,13-21.7,12A8.2,8.2,0,0,1,59.58,84c-1.14-3.78,0-8.55,3.35-13.79C75.1,51.11,97.78,40.2,123.61,41.07a54.74,54.74,0,0,1,28.17,8.69,2.88,2.88,0,0,0-1.16,1.45c-.28.76-1.13,3.09,5,8.21l.45.38a71.78,71.78,0,0,0,15,10.15A84.16,84.16,0,0,1,178.57,86.05Zm31.5-29.15c-2.21,4.36-7.83,10-16.95,12.69a21.12,21.12,0,0,1-6.07.85h0c-5.9,0-15.66-2.38-28.58-13.48l-.48-.41a17.85,17.85,0,0,1-3.57-3.79,9.31,9.31,0,0,1,1.41,0c6.6.56,17.24.66,24.67.68,4,0,8,0,11.81,0h9.16c5.14,0,8.37.09,9.6.22A7.69,7.69,0,0,1,210.07,56.9Z"/><path d="M164.77,140.8a69.74,69.74,0,0,1,9.75,1.35c4.83,1,14,1.86,18.89,2.48a3.27,3.27,0,0,1,3,3.42c-.54,5.3-1.77,15.92-3.12,15.87-3.48-.12-7.57-1-17.69-4.57s-11.45-4.87-11.45-4.87A49.34,49.34,0,0,0,164.77,140.8Z"/><path class="cls-13" d="M102.15,83.61c-5.64,2.45.45-.19,4.7,10.43,3.33,8.31,0,13.16,5.57,13.18s5.31-11.62,2-17.46C112,85.44,108.6,80.81,102.15,83.61Z"/><path d="M101.39,82.32c-6.15,2.68-.08,5.1,2.17,8.53a23.63,23.63,0,0,1,3.44,9.92,23.86,23.86,0,0,0,.65,4.86,4.62,4.62,0,0,0,5.15,3.05c11.61-1.11,4.31-32.06-11.06-26.52-1.8.65-1,3.55.8,2.89,7-2.52,11.2,4.56,12.38,10.57.44,2.22.9,5.79-.18,8-.73,1.48-2.56,3.42-4.2,1.23-.52-.69-.34-2.17-.43-3-.56-4.82-1.72-9.51-4.63-13.5A11.4,11.4,0,0,0,102.29,85c-.24-.13-1.85-1.64-1.14-.06.44,1,.38.54,1.76-.06C104.67,84.14,103.14,81.55,101.39,82.32Z"/><path class="cls-13" d="M131.39,76.5c5-7.33,10.68-4,13.73.13,4.93-2.88,9.95-2.72,15,1.12,5.76-3.37,11.1-1.27,14.84,2.61,3-3.16,8.67-2.47,10.48.64,5.4-3.76,11.81,5.78,8.2,9,4.45,5.37-4.8,11.08-9.57,6.54-3.2,2.39-11.85,0-13.37-3.63-2.45,1.42-10.94,1.54-13.46-2.43-1.11.49-7.37-3.48-16.5-5.4A113.39,113.39,0,0,0,123.56,83S124.7,75.52,131.39,76.5Z"/><path d="M132.68,77.25c3.9-5.07,8-3.84,11.37.43a1.51,1.51,0,0,0,1.82.23c4.85-2.52,9-2,13.5,1.12a1.51,1.51,0,0,0,1.51,0c4.88-2.46,9.17-1.3,13,2.38a1.54,1.54,0,0,0,2.12,0c2.26-1.94,6.1-2.34,8.12.34a1.54,1.54,0,0,0,2.05.54c3.16-1.77,9.3,3.26,6.38,6.64a1.54,1.54,0,0,0-.23,1.82c3,4.46-3.79,7.42-7.22,4.73a1.57,1.57,0,0,0-1.82-.23c-3.26,1.91-9.46.21-11.32-3.09a1.54,1.54,0,0,0-2.05-.54,11.3,11.3,0,0,1-6.29.52c-2.63-.41-3.56-1.83-5.65-2.95-1.74-.93-4.67-1.59-6.8-2.43-8.76-3.47-18.25-4.93-27.64-5.28l1.45,1.9c.58-3.37,2.73-5.65,6.38-5.38,1.93.14,1.92-2.86,0-3-4.82-.35-8.45,2.86-9.27,7.59a1.53,1.53,0,0,0,1.45,1.9,100.69,100.69,0,0,1,14.94,1.69c5.92,1.13,11,3.86,16.74,5.46a8,8,0,0,1,1.51.38c1,.61-.66-.09.37.6a13.29,13.29,0,0,0,4.32,2.17,15.2,15.2,0,0,0,10-.56l-2.05-.54c2.66,4.72,10.75,6.9,15.42,4.17L183,97.61c5.88,4.63,17.16-.7,11.93-8.36l-.23,1.82c5.06-5.85-3.55-15-10-11.35l2.05.54c-3.24-4.29-8.89-4.33-12.83-.95H176a16.55,16.55,0,0,0-6.65-4.23c-3.2-.94-5.3.53-8.27.52-2.63,0-5-2-7.79-2.33a15.23,15.23,0,0,0-9,2.06l1.82.23c-4.95-6.26-11.3-6-16.08.17C128.91,77.27,131.52,78.76,132.68,77.25Z"/><path d="M159.19,95.88a2,2,0,0,1-.82-.18c-1-.45-2.51-1.33-4.44-2.43-3.88-2.24-9.19-5.3-12.59-6.18-17.95-4.63-30.63-2-30.76-1.93a2,2,0,0,1-.86-3.91c.55-.12,13.68-2.92,32.62,2,3.93,1,9.51,4.23,13.59,6.58,1.75,1,3.27,1.89,4.08,2.25a2,2,0,0,1-.82,3.82Z"/><path class="cls-13" d="M164.16,153.19c5.94-.86,10.73,1.75,11.8,7.22,0,0,3.86-1.33,6.84,0a6.51,6.51,0,0,1,3.8,4.35s5.45-1.93,8.55,2.77c2.87,4.34.32,9.72-4.92,11-4.32,1.08-8-2.94-8-2.94a11.92,11.92,0,0,1-8.07-2.61,15,15,0,0,1-4.59-5.91s-6.31-.66-5.77-3.19a2.32,2.32,0,0,0-2-2.88Z"/><path d="M164.16,154.69c4.9-.5,9,1,10.35,6.12a1.52,1.52,0,0,0,1.85,1c3.17-1,7.88-.54,8.79,3.33a1.51,1.51,0,0,0,1.85,1c4-1.3,8.89,1.83,7.67,6.52a6.56,6.56,0,0,1-5.85,4.51c-3.11.06-3.2-1.56-5.43-2.55a8.83,8.83,0,0,0-2.68-.58,12.76,12.76,0,0,1-9.73-7.41,1.61,1.61,0,0,0-1.45-1.1,9.72,9.72,0,0,1-2.28-.47c-2.11-.82-1.34-1.52-2.17-3.09a4.11,4.11,0,0,0-2.92-2.45l1,1.85,2.4-7.86c.56-1.85-2.33-2.64-2.89-.8l-2.4,7.86a1.51,1.51,0,0,0,1,1.85c.32.07,1.85,4,2.8,4.6a12.28,12.28,0,0,0,5.37,1.52l-1.45-1.1A15.48,15.48,0,0,0,179.67,177c.67.1,3.19.58,1.59-.16.9.42,1.7,1.45,2.59,2a9.13,9.13,0,0,0,8,.81c10.6-4.05,5-19.71-5.68-16.28l1.85,1c-1.31-5.54-7.72-6.91-12.48-5.42l1.85,1c-1.64-6.35-7-9-13.25-8.32C162.25,151.89,162.23,154.89,164.16,154.69Z"/><path class="cls-6" d="M119.86,165.66s5.39-4.64,8.83-4.48,8.85,12,10,21.49c1.51,12.94-5.31,32-7.92,33.59S123,216,123,216s-11.11,5.58-14.74,6.68c-4.22,1.28-11.43,1.27-14.28-7.18-1.34-4,3.5-13.7-.06-22.77-2.73-6.94-6.07-18.88-4.52-24.87,1.73-6.68,1.94-12,10.86-12.09C117.15,155.54,119.86,165.66,119.86,165.66Z"/><path d="M120.92,166.72c1.7-1.43,4.81-4,7.12-3.81,3.33.3,5.4,6.51,6.43,9.24a44.43,44.43,0,0,1,2,23.77c-1,5.52-2.28,12.84-5.51,17.56-2.4,3.51-6.36.32-9.71,1.7-4.71,1.94-9.12,5-14.13,6.22a9.7,9.7,0,0,1-8.72-1.74c-3.95-3.37-3.07-7.43-2.36-11.88a38.71,38.71,0,0,0,.59-10.26c-.38-3.57-1.9-6.79-3-10.17-2.24-7-4-14.16-2.2-21.42,1-3.92,1.87-7.47,6.33-8.42a23.66,23.66,0,0,1,12.8,1.33c3.15,1.24,6.83,3.75,7.83,7.22a1.5,1.5,0,0,0,2.89-.8c-1-3.38-3.9-6.17-6.85-7.88-5.6-3.25-16.44-5.39-21.85-.81-5.11,4.33-5.49,14.15-4.6,20.15a75.28,75.28,0,0,0,3.64,14c2.36,6.66,2.14,11.91,1.09,18.85-1,6.67,1.66,13.44,9,14.91,6.43,1.29,13-2.8,18.52-5.49a17.89,17.89,0,0,1,3.25-1.59c1.09-.25-1.77-.08-.14.19.92.15,1.8.47,2.74.6,2.48.33,4.79.15,6.52-1.72s2.56-4.77,3.4-7.07a74.7,74.7,0,0,0,3.83-15.53c1.37-10.08-.31-20.88-5.76-29.63-1.5-2.41-3.27-4.77-6.35-4.53-3.24.25-6.53,2.85-8.91,4.85C117.32,165.85,119.45,168,120.92,166.72Z"/><path d="M122.93,188.75h-.09a1.5,1.5,0,0,1-1.41-1.59c.77-12.76-1.47-21.22-6.86-25.86a1.5,1.5,0,0,1,2-2.27c6.15,5.3,8.73,14.56,7.89,28.31A1.5,1.5,0,0,1,122.93,188.75Z"/><path class="cls-7" d="M90.07,166.64c1.92-5.79,4-9,10-9.53s11.81,18.82,12.5,37.54c1.1,29.76-8.92,27.21-8.92,27.21s-9.17.94-7.51-10.84c.84-6,1.1-11.81-1.21-18.31C88.38,174.2,89.09,169.58,90.07,166.64Z"/><path d="M91.51,167c1.88-5.42,7.92-12.39,12.36-5.12,3.22,5.29,4.59,12,5.67,18a104.65,104.65,0,0,1,1.54,23.72c-.23,4.4-.62,9.45-2.79,13.4-1.26,2.3-3,3.39-4.79,3.32-3.88-.15-5.93-2.63-6-6.56-.15-6.5,1.42-12.38-.27-18.88-2.15-8.25-8.53-19-5.69-27.89.59-1.84-2.3-2.63-2.89-.8-3.38,10.53,4.59,22,6.25,32,1.42,8.5-4.73,24.55,8.76,25.07-.86,0,.48.07.71,0a7.5,7.5,0,0,0,2.39-.57c2.38-1.07,3.84-3.45,4.83-5.75,2.5-5.8,2.67-12.69,2.63-18.89a104,104,0,0,0-3.75-27.81c-1.3-4.52-3.67-13.69-9.35-14.72-6.73-1.22-10.64,5.32-12.47,10.57C88,168.07,90.88,168.85,91.51,167Z"/><path class="cls-13" d="M87,76.65C74.55,73,71,92.8,56.05,88.46c0,0,9.77,8.28,19.72,4.94C88.14,89.25,87,76.65,87,76.65Z"/><path d="M87.42,75.2C74.36,72,69.62,90.36,56.45,87c-1.35-.34-2.67,1.5-1.46,2.51C61.94,95.26,72.06,98,80.17,93a18,18,0,0,0,8.35-16.37c-.15-1.91-3.15-1.93-3,0a15.18,15.18,0,0,1-5.85,13.12c-6.9,5.07-16.36,2.75-22.56-2.37L55.66,89.9c5.69,1.45,10.53,0,15.06-3.59,4.78-3.81,9-9.91,15.9-8.22C88.5,78.55,89.29,75.66,87.42,75.2Z"/><path class="cls-14" d="M126.84,84.74a32.79,32.79,0,0,0,9.58,1.64,23.33,23.33,0,0,1,11,3.51A25.51,25.51,0,0,0,154,92.51c2.7.7,4.52,2.66,7.23,3.28a18.27,18.27,0,0,0,7.09-.24c2.47-.42.78-.25,3,1.58,4.06,3.35,13.43.43,13.43.43s7,3.19,9.26-3.72c.69-2.1-1.66-3.26-1.66-3.26a3.35,3.35,0,0,1-.72,2.92c-1.94,2-4,1.1-5.74-.7a2.49,2.49,0,0,0-3,0c-3.1,2.27-6.29.95-8.72-1.52-1.18-1.2-1.85-1.9-3.59-2.11-1.43-.17-3,.49-4.42.69a7.62,7.62,0,0,1-4.84-.57c-1.12-.68-1.16-1.41-2.33-2-2.3-1.08-4.88-.76-7.25-1.9-2.12-1-4-2.48-6.16-3.42-5.43-2.35-11.58-.93-17.07-3-3.61-1.39-5.19,4.41-1.62,5.78Z"/><path class="cls-15" d="M72.22,57.11s18.71-18,27.77-29.64,21-23.41,35.77-23c8.56.24,16.35,4.63,24.14,8.2s16.74,6.4,24.78,3.44a24.25,24.25,0,0,1-16.37,13.65c-7.73,2.06-7.52,11.12-6.2,17.81.83,4.22-1.55,4.65-7.67,1.44-8.71-4.56-22.44-9.85-37.79-8.68A87.85,87.85,0,0,0,72.22,57.11Z"/><path d="M73.28,58.18Q80.77,51,87.93,43.39c7.76-8.17,14.32-17.52,22.4-25.35,4.85-4.7,10.51-8.94,17.05-10.91,7.21-2.18,14.32-.81,21.15,2,11.75,4.78,23.37,12.67,36.56,8.47l-1.85-1.85c-1.45,3.81-4.74,7.18-8.07,9.38-4.84,3.21-11.31,3.08-14,8.94a17.66,17.66,0,0,0-1.28,7.62c0,2.31,1.92,7.75-1.18,7.64-2.82-.1-7.05-3.36-9.7-4.49a80.23,80.23,0,0,0-10.61-3.72c-22.45-6.08-49.1.43-67.27,15-1.51,1.21.63,3.32,2.12,2.12,21.82-17.46,53.26-21.15,78.21-9,2.64,1.29,9,5.72,11.65,2.09,1.1-1.53.45-3.58.2-5.25-.53-3.64-1.06-8.15.92-11.47C166.4,31,171,30.78,174.45,29a26.14,26.14,0,0,0,6.85-5.15,22.68,22.68,0,0,0,4.82-7.32,1.51,1.51,0,0,0-1.85-1.85c-15.56,5-28.54-8.08-43.07-11C129.64,1.26,119,6.23,110.49,13.79c-8.85,7.84-15.63,17.89-23.74,26.48q-7.61,8.07-15.59,15.78C69.77,57.4,71.89,59.52,73.28,58.18Z"/><path class="cls-13" d="M175.08,19.81c2.61,5.58,8.9,4.1,8.9,4.1s1.53,3.77,4.94,3.62c5.34-.23,4.17-6.3,4.17-6.3s4.54,2,6.79-1.16-.54-6.61-.54-6.61,4.62-3-.07-7.77-8.62.21-8.62.21-4-5.66-9.2-1.29c-1.54,1.29-1.93,5.61-1.93,5.61S172.46,14.23,175.08,19.81Z"/><path d="M188.72,29a6.66,6.66,0,0,1-5.56-3.48,9.11,9.11,0,0,1-9.44-5.11h0c-2.34-5,1.54-9.24,4.4-11.13.21-1.52.81-4.56,2.38-5.87a7.42,7.42,0,0,1,5.82-1.95,8.18,8.18,0,0,1,4.43,2.25,6.73,6.73,0,0,1,9.6.87c1.87,1.88,2.71,3.81,2.51,5.75a5.88,5.88,0,0,1-1.55,3.34,6.76,6.76,0,0,1-.19,7.22,6.2,6.2,0,0,1-6.42,2.28A6.75,6.75,0,0,1,193.37,27,5.62,5.62,0,0,1,189,29ZM184,22.41a1.51,1.51,0,0,1,1.4.94S186.52,26,188.74,26h.12a2.72,2.72,0,0,0,2.16-.91,5.19,5.19,0,0,0,.61-3.61,1.5,1.5,0,0,1,2.08-1.66c.13.06,3.46,1.46,5-.66s-.41-4.69-.49-4.8a1.51,1.51,0,0,1,.34-2.19,3.38,3.38,0,0,0,1.35-2.15c.09-1-.46-2.11-1.66-3.31a4.47,4.47,0,0,0-3.29-1.6,4.92,4.92,0,0,0-3.09,1.69,1.55,1.55,0,0,1-1.22.55,1.5,1.5,0,0,1-1.18-.63,6,6,0,0,0-3.52-2.28,4.5,4.5,0,0,0-3.49,1.28c-.63.52-1.24,2.84-1.4,4.6a1.5,1.5,0,0,1-.75,1.17c-.24.14-5.82,3.41-3.83,7.66h0c2.05,4.38,7,3.32,7.21,3.27A1.53,1.53,0,0,1,184,22.41Z"/><path class="cls-14" d="M160.93,161.34c1.74,3.94,5.23,5.53,8.38,8.21a21.73,21.73,0,0,0,4.75,3.32c1.8.86,3.79.9,5.57,1.61,2.07.82,3.22,2.86,5.49,3.59,3.44,1.12,9.57.65,10.52-2.7,2.47-8.67-4.33-9.42-4.33-9.42s2.38,2.06,2.36,4.21c0,2.52-2.78,5.11-7.67,3.78-.52-.14-3.9-2.33-4.42-2.35-4.84-.21-6.39-4.88-9.9-7.9-2.51-2.15-6.69-.54-8.16-3.86-.78-1.76-3.37-.25-2.6,1.51Z"/><path class="cls-14" d="M184,22.78a5.37,5.37,0,0,1-3,.26,7,7,0,0,1-4.32-3.2,7.68,7.68,0,0,1-1.11-4.95,5.16,5.16,0,0,1,2.48-4,5.16,5.16,0,0,0-1.33,4.07,6.78,6.78,0,0,0,1.54,3.78,5,5,0,0,0,3.16,1.88c1.06.13,3.64-2.26,4.36-2a1.4,1.4,0,0,1,.82,1.7l-.07.23a2.19,2.19,0,0,0,.38,1.84,1.86,1.86,0,0,0,3.19.08,2.2,2.2,0,0,0,.5-1.81l0-.18c-.17-.73.94-1.82,1.67-2a1.36,1.36,0,0,1,1.07.19,2.25,2.25,0,0,0,1.76.23,1.38,1.38,0,0,0,1.08-.7,5.12,5.12,0,0,0,.63-4.63l0-.14a.64.64,0,0,1,.3-.76,5.73,5.73,0,0,0,2.77-5c1.91,2.16-.87,5.14-.87,5.14a7.86,7.86,0,0,1,1,3.22c0,1.13.69,3,0,4s-3.62,1.3-4.82,1.68-1.85-1.92-1.85-1.92a4.88,4.88,0,0,1-.83,4.41,4.72,4.72,0,0,1-8-.22Z"/><path class="cls-13" d="M87.41,76.62S99.19,68,108,72.76c14.5,7.83,21.32.2,21.32.2s.12,8.14-17.27,13.76S87.41,76.62,87.41,76.62Z"/><path d="M88.16,77.92a28.73,28.73,0,0,1,8.93-4.33,14.49,14.49,0,0,1,10.11.47,44.88,44.88,0,0,0,8.15,3.18c4.88,1.1,11.33.72,15-3.22L127.78,73c-.09,8.15-16,13.09-21.82,13.43A18.26,18.26,0,0,1,88.7,75.87c-.82-1.75-3.41-.22-2.59,1.51a21.17,21.17,0,0,0,22,11.79c7.21-1,22.61-6.7,22.71-16.22a1.52,1.52,0,0,0-2.56-1.06c-6.29,6.75-15.69.26-22.32-1.56s-14,1.24-19.26,5C85.09,76.44,86.59,79,88.16,77.92Z"/><path class="cls-8" d="M15.62,125.06c-3.1,3.35-5,8.16-3.77,12.55s6.45,7.61,10.63,5.76c3.12-1.38,4.69-4.86,5.63-8.14S18.72,121.71,15.62,125.06Z"/><path d="M14.55,124c-4.37,5.05-6.89,13.07-1.49,18.4,4.86,4.8,11.74,3.31,14.84-2.53,2.68-5,1.48-8.27-2.37-12.2-2.5-2.55-7.45-6.75-11-3.67-1.46,1.27.67,3.38,2.12,2.12s5.55,2.49,6.47,3.41c1.78,1.76,3.71,3.73,3.21,6.29-1,5.11-6.4,8.74-10.82,4.81-4.57-4.07-2.26-10.57,1.14-14.51C17.93,124.66,15.82,122.53,14.55,124Z"/><path class="cls-19" d="M180.29,97.5s.25,21.11-1.1,28S175,146.23,175,146.23l8.72.83,3.8-19.56L183,96.94Z"/><path class="cls-19" d="M171.66,170.63s-2.52,10.35-6.85,14.83-15,15.07-21.87,16.94-7.21,3.05-7.21,3.05v4.16s12.47-5.71,19.22-7.56,17.83-11.86,17.83-11.86l9.42-14.54-8.13-2.78Z"/><path class="cls-20" d="M137.81,192.37s-3.47,14.06-8.31,17.73a7.46,7.46,0,0,1-5.84,1.19,4.47,4.47,0,0,0-1.66,0l-3.74.58c-1,.15-6.36,1.77-7.05,2.45l-2.32,4.22-4.35,5,16.33-7.54,6.94.94,4.35-1.69Z"/><polygon class="cls-21" points="93.73 190.86 112.68 213.49 108.3 222.64 97.31 221.88 94.03 215.47 93.9 200.24 93.73 190.86"/><polygon class="cls-21" points="11.29 183.09 37.79 192.63 40.18 203.48 36.11 213.34 28.5 208.97 24.46 201.59 11.29 183.09"/><path class="cls-19" d="M175.45,22.91s-1.57-7.53-4.26-.45-47.45,14.88-47.45,14.88c2.61,5.39,31.81,8.07,35.93,5.48l3.27-8.29,12.49-5,3.54-3.3Z"/><path class="cls-13" d="M70.62,55.35c8.9,6.12,18.46,1.69,21.48-4.69,2.11,2.47,6.88,2.86,9.79,2.35,4-.69,8.48-1.67,10.21-5.65,3.38,6.12,16.11,5.75,19.22.33,1,4.48,5.95,5.06,8.23,5.4,3.65.55,7.66-.45,9.66-3.86,1.7,3.46,11.49,6.94,15.79,2.23,5.79,4.43,8.64-6.42,3.18-6.23-1.5-4.93-5.77-4.69-8.5-2.42-1.25-3.83-7.49-4.15-10.32-2.29-4.09-6.65-15.3-5.69-18.12-1.74a8.9,8.9,0,0,0-8.51-6.37c-2-.06-7.69-.73-10,3.44-4.3-5.71-12.73-5.1-16.43-1.22-1.4-3.39-12.52-5.21-14.51,2.06C73.3,31.56,67,41.09,68.88,43.83,63.74,43.46,62.25,56.46,70.62,55.35Z"/><path d="M70.12,56.22C78,61.13,88.3,59.82,93,51.17l-1.57.2c5.6,5.25,17.95,3.2,21.57-3.5h-1.73c4.29,6.58,16.48,6.9,21,.33L130.36,48c2.73,8,15.19,8.06,19.71,1.78h-1.73c2.5,4,8.71,5.79,13.15,4.76,1.09-.25,2.35-1.36,3.3-1.5s1.53.44,2.44.49A4.14,4.14,0,0,0,170.79,52c2.52-3,1.06-5.52-1.23-7.52-1.23-1.08-2.09-3-3.86-3.75-2.28-1-4.65-.09-6.54,1.27l1.37.36c-2.09-4.35-7.8-4.72-11.69-2.64l1.37.36c-4.08-5.79-14.69-7.82-19.7-1.94l1.67.44c-3-7.71-15.26-10.46-20.36-3.16l1.57-.2A12.39,12.39,0,0,0,95.55,34l1.57.2c-3.56-6.29-14.19-3.72-16.34,2.3l1.47-.6c-3.86-2.06-8.08-2.27-11.51.75-2.06,1.82-4,5-2.72,7.73l.86-1.5c-7.67.27-6.64,14.09,1.74,13.52,1.28-.09,1.29-2.09,0-2-5.87.39-6.71-9.35-1.74-9.52a1,1,0,0,0,.86-1.5c-.84-1.75,1.17-4.28,2.41-5.3,2.78-2.3,6-2.06,9.09-.43a1,1,0,0,0,1.47-.6c1.55-4.35,10-6.51,12.68-1.82a1,1,0,0,0,1.57.2,10.4,10.4,0,0,1,15,1.22,1,1,0,0,0,1.57-.2c4.05-5.8,14.45-3.07,16.7,2.68a1,1,0,0,0,1.67.44c4.12-4.84,13.18-3.25,16.55,1.53a1,1,0,0,0,1.37.36c2.92-1.56,7.34-1.44,9,1.93a1,1,0,0,0,1.37.36c2.28-1.64,5.21-2.75,7,1.82a1.06,1.06,0,0,0,1,.73c3.06.22,1.85,7.3-2.67,4.37a1,1,0,0,0-1.21.16c-3.63,3.34-11.53,2.26-14.22-2a1,1,0,0,0-1.73,0c-3.36,4.68-13.9,5.05-16.05-1.3a1,1,0,0,0-1.83-.24c-3.6,5.29-14.09,4.9-17.5-.33a1,1,0,0,0-1.73,0C108.29,52.3,97.41,54.28,92.8,50a1,1,0,0,0-1.57.2c-4.14,7.69-13.08,8.69-20.11,4.33C70,53.81,69,55.54,70.12,56.22Z"/><path class="cls-14" d="M112.45,43.62c3.19.62,8.19,7.77,19.28.14,1-.71,5.56,4,9.09,3.32,2.64-.53,4.5-2.17,7.33-2s6,3.9,8.56,4.53c3.09.76,5.48-3.33,8.09-1.36,4.49,3.39,4.49-1.39,4.49-1.39s4,6-6.11,7.17a22,22,0,0,1-10.53-1.14c-2.6-1-4-2.16-7-1.29-1.12.32-2.11,1-3.25,1.26-5.41,1.4-11-4.41-11-4.41-7.53,4.9-13.64,3.52-18.95-1.45,0,0-11.6,9.85-20,3.3C93.78,50,87.32,57,82,57.93c-4.57.84-20.18-4.1-17-10.54l2.65-2c-.47,3.17,1.19,6.68,4.47,5.83,1.2,1.9,8.15,2.38,11.13,1.3s4.81-5.63,7.36-6.08,7.45,3.08,11.22,2.79C110.27,48.58,109.42,43,112.45,43.62Z"/></g></g></g></svg>