<?xml version="1.0" encoding="utf-8"?>
<!-- Generator: Adobe Illustrator 21.0.2, SVG Export Plug-In . SVG Version: 6.00 Build 0)  -->
<svg version="1.1" id="Layer_1" xmlns="http://www.w3.org/2000/svg" xmlns:xlink="http://www.w3.org/1999/xlink" x="0px" y="0px"
	 viewBox="0 0 200 250" style="enable-background:new 0 0 200 250;" xml:space="preserve">
<style type="text/css">
	.st0{fill:#FFFFFF;}
	.st1{fill:#F9BFBE;}
	.st2{fill:#0071BB;}
	.st3{fill:#140958;}
	.st4{fill:#F5871F;}
	.st5{fill:#58A0BD;}
	.st6{fill:#FDD108;}
</style>
<g>
	<path d="M24.5,126.6c-0.6,0-1.2-0.1-1.8-0.3c-5.4-1.5-9.8-8.9-7.9-18.7c1.5-7.3,6.1-11.4,12.1-10.7c6.9,0.8,9.1,5,9.2,5.1
		c0.4,0.8,0.1,1.8-0.7,2.2c-0.8,0.4-1.7,0.1-2.2-0.6c-0.1-0.1-1.7-2.9-6.8-3.5c-6.3-0.8-8.1,6-8.6,8.1c-1.2,6.1,0.7,13.6,5.6,15
		c2.5,0.7,6.8-1.2,8.2-2c0.8-0.4,1.8-0.2,2.2,0.6c0.4,0.8,0.2,1.8-0.6,2.2C32.8,124.4,28.5,126.7,24.5,126.6"/>
	<path d="M83.6,167.7c0.6,0,1.2,0.2,1.7,0.4c1.5,0.7,2.5,2.2,2.6,3.9c0.2,3.8,1,3.8,2.8,3.9c3.1,0.1,5.4-1.1,7.1-3.8
		c0.9-1.4,2.6-2.2,4.3-2c0.9,0.1,1.8,0.2,2.8,0.2c4.4,0.2,11.2-0.3,19.2-3.4c2.2-0.9,4.7,0.2,5.7,2.4c0.1,0.2,0.1,0.4,0.2,0.5
		c0.8-1.8,1.5-3.6,2-5.4c0.3-1,1-1.9,1.9-2.5c21.8-13.9,22.6-62.6,15.8-84.5c-1.4-4.6-3.3-9-5.6-12.9c-1-1.7-0.7-3.9,0.7-5.3
		c1.4-1.4,3.5-1.8,5.3-0.9c3.5,1.8,6.8,2.8,9.8,2.9c1.4,0.1,2.8-0.1,4-0.4c5.7-1.5,9.2-4.4,11-6.7c-0.9,0-2-0.1-3.3-0.1
		c-2.2-0.1-4.7-0.2-7.3-0.2c-3-0.1-6.2-0.2-9.4-0.3c-5.7-0.2-14-0.6-19.4-1.2c-0.9-0.1-1.7-0.4-2.4-1c-6.7-5.6-14.7-8.7-23.7-9.3
		c-0.7,0-1.3-0.1-2-0.1c-18.8-0.7-35.5,7-44.8,20.6c-0.2,0.3-0.4,0.5-0.7,0.8c-1.2,1.1-2.7,2.2-4.3,3.4c1.2,0.7,2.1,2,2.2,3.5
		c0.2,2.1,1.5,3,1.7,3.1c2,1.2,2.7,3.7,1.7,5.8c-1,2.1-3.3,3-5.5,2.3c0,0,0,0,0,0c-1.6,1.2-3.8,1.2-5.4,0.1c-0.9,0.2-2.8,1.2-4,2.6
		c-0.7,0.8-0.9,1.5-0.9,1.7c0,0.3,0.1,0.4,0.2,0.5c1.3,1.6,1.4,3.8,0.2,5.5c-5.4,7.7-8.5,16.7-8.9,26.1c-0.2,5.2,0.5,10.4,1.9,15.4
		c0.6,2.1-0.3,4.3-2.3,5.3c-1.9,1-4.3,0.4-5.6-1.3c-0.7-1-1.1-1.3-1.3-1.4c-1.4-1.2-2.9-1.8-4.3-1.9c-1.2,0-2.3,0.4-3.1,1.2
		c-1,1.1-1.3,2.8-1,4.8c1.1,6.4,12.9,20.2,20.5,22.3c0.4,0.1,0.6,0.2,0.9,0.2c0.1-0.9-0.1-2.8-0.6-4c-0.3-0.7-0.7-1.6-1.1-2.6
		c-0.9-2-0.2-4.4,1.7-5.6c1.9-1.2,4.3-0.8,5.8,0.9c8.2,9.5,19.4,15.4,31.8,16.7C82.9,167.7,83.3,167.7,83.6,167.7 M44.8,184.8
		c-1.4-0.1-3.4,0.3-3.6,3.8c-0.1,1.2,0.8,3.5,3.5,6.5c5.3,5.9,16.5,12.6,28.5,13c2.5,0.1,5-0.1,7.4-0.6c19-3.8,37.2-16.7,46.6-32.1
		l-0.4,0.2c-10.8,17.2-32.3,29.5-50.5,28.8c-9.7-0.4-17.3-4.6-21.2-11.9C52.1,187.4,47.8,184.9,44.8,184.8 M72.9,217.1
		c-14.7-0.5-28.1-8.4-34.9-16c-4-4.5-6-9-5.7-13.1c0.5-7.6,5.7-12.5,12.9-12.2c6.9,0.3,13.7,5.1,17.7,12.5c3.1,5.6,9.1,7,13.7,7.2
		c10.8,0.4,25.7-5.6,36.2-16.6c-3.2,0.4-6,0.4-8.2,0.3c-0.3,0-0.6,0-0.9,0c-3.4,3.8-8,5.8-13.3,5.6c-3.5-0.1-9.1-1.5-10.9-8.4
		c-9.6-1.3-18.6-5-26.2-10.7c-0.3,0.8-0.7,1.6-1.2,2.3c-1.6,2.3-4.2,3.5-7.3,3.4c-1,0-2.1-0.2-3.2-0.5
		c-11.4-3.2-25.3-19.8-26.9-29.4c-0.8-4.7,0.3-9.1,3.1-12.2c2.5-2.9,6.2-4.4,10.2-4.3c0.8,0,1.6,0.1,2.4,0.3
		c-0.3-2.6-0.3-5.1-0.2-7.7c0.4-10.3,3.5-20.1,8.9-28.7c-0.2-0.6-0.3-1.2-0.4-1.8c-0.5-3.1,0.7-6.3,3.1-9.1c0.4-0.4,0.8-0.8,1.2-1.2
		c-3.5-1.3-5-3.8-5.1-6.1c-0.2-3.1,1.9-5.8,5.1-6.3c1.9-0.3,8.9-4,12.7-7.3C67.2,40.5,87.6,31.5,110.2,33
		c10.4,0.7,19.8,4.2,27.7,10.5c5.1,0.5,12.3,0.8,17.4,1c3.2,0.1,6.4,0.2,9.4,0.3c2.7,0.1,5.2,0.2,7.3,0.2c6.8,0.3,8.5,0.4,9.5,0.7
		c2.4,0.7,4,3,4,5.7c-0.1,5.3-6.3,14.6-19.3,18c-2.1,0.5-4.3,0.8-6.6,0.7c-1,0-2-0.1-3-0.3c0.6,1.6,1.2,3.2,1.7,4.8
		c7.4,23.5,7.4,75.7-18.1,93.8c-7.6,22.7-31.7,42.6-57.9,47.8C79.3,217,76.1,217.2,72.9,217.1"/>
	<path class="st0" d="M83.7,172c-28.1-2.3-49.6-26.3-48.6-54.7c0.6-17.3,9.5-32.3,22.7-41.5c8.9,5.1,16.4-3.3,22.2-7.3
		c16,4.7,42.2,3.3,58.7,35.9c2.5,4.9,2.3,11,2.1,16.8c-0.2,5.2-1.1,10.3-2.7,15c-12.8-5.3-28.5,0.2-33.4,11.7
		C95.4,163.1,83.7,172,83.7,172"/>
	<path class="st0" d="M110.4,116.8c0.8-22.4-16.5-41.2-38.7-42.4c-4.3,2.8-9.1,4.7-14.5,1.8c-0.2,0.1-0.4,0.1-0.7,0.2
		c-12.9,9.2-21.6,24.1-22.3,41.2c-0.3,9.4,1.8,18.3,5.8,26.1c7.1,7.3,16.9,12.1,27.9,12.5C90.5,157,109.5,139.4,110.4,116.8"/>
	<path class="st1" d="M82.5,116.6c0.9,6.8-3.3,12.9-9.4,13.7c-6.1,0.8-11.7-4.1-12.6-10.8c-0.9-6.8,3.3-12.9,9.4-13.7
		C76,104.9,81.6,109.8,82.5,116.6"/>
	<path class="st2" d="M108.4,122.1c-0.2,1.6-1.7,2.8-3.4,2.5c-1.6-0.2-2.8-1.7-2.5-3.4c0.2-1.6,1.7-2.8,3.4-2.5
		C107.5,119,108.7,120.5,108.4,122.1"/>
	<path class="st2" d="M108.9,130.6c0,1-0.9,1.8-1.9,1.8c-1,0-1.8-0.9-1.8-1.9c0-1,0.9-1.8,1.9-1.8
		C108.2,128.7,109,129.6,108.9,130.6"/>
	<path class="st3" d="M142.3,113.7c-1-11.2-6.2-41.7-42.8-46.7c-61.5-8.3-64.8,46.4-64.8,46.5c0.1-1.4,0.5-2.8,1.5-3.9
		c3.8-4.5,4.5,1.5,9.7,5.3c6.9,5,11.6-2,13.9-5.3c4.2-6.1,9-10.2,16.4-7.7c4.9,1.7,7.9,5.9,10.3,10.1c1.3,2.2,2.8,4.6,5.3,5.5
		c4.8,1.9,6.9-0.3,11-2.4c3.7-1.9,7.1-2.6,11.3,1.6c3.8,3.7,3.9,6.2,9.4,7.7c2.4,0.7,4.6,0.8,6.5,0.5c7.4-1,12.5-7.4,12.5-7.4
		S142.6,116.2,142.3,113.7"/>
	<path class="st2" d="M114.1,124.9c0,0.8-0.7,1.4-1.5,1.4c-0.8,0-1.4-0.7-1.4-1.5c0-0.8,0.7-1.4,1.5-1.4
		C113.5,123.4,114.1,124.1,114.1,124.9"/>
	<path class="st0" d="M76.6,117.5c0.3,4-2,7.4-5.2,7.7c-3.2,0.3-6.1-2.7-6.5-6.7c-0.3-4,2-7.4,5.2-7.7
		C73.4,110.6,76.3,113.6,76.6,117.5"/>
	<path class="st2" d="M44.4,119.2c0.1,1.6-1,3-2.3,3.1c-1.4,0.1-2.5-1.2-2.6-2.9c-0.1-1.6,1-3,2.3-3.1
		C43.2,116.3,44.3,117.5,44.4,119.2"/>
	<path class="st2" d="M45.4,127.9c0,1-0.6,1.9-1.5,1.9c-0.9,0-1.6-0.8-1.6-1.8c0-1,0.6-1.9,1.5-1.9C44.6,126,45.4,126.9,45.4,127.9"
		/>
	<path class="st2" d="M49.2,121.8c0,0.8-0.5,1.5-1.1,1.5c-0.6,0-1.2-0.6-1.2-1.4c0-0.8,0.5-1.5,1.1-1.5
		C48.6,120.4,49.2,121,49.2,121.8"/>
	<path d="M83.2,173.8L83.2,173.8c-29.2-2.4-51.1-27.1-50-56.2c0.6-17.3,9.2-32.8,23.4-42.7c0.7-0.5,1.6-0.3,2.1,0.4
		c0.5,0.7,0.3,1.6-0.4,2.1c-13.4,9.3-21.5,24-22.1,40.3c-1,27.6,19.7,50.9,47.2,53.1c0.8,0.1,1.4,0.8,1.4,1.6
		C84.7,173.3,84,173.9,83.2,173.8"/>
	<path class="st4" d="M55,72.1c-13.1,3.2-14.2-2.9-11.2-3.4c3-0.6,11.2-4.9,15.3-8.8L55,72.1z"/>
	<path class="st4" d="M136.5,165.7c-6.5,21.4-29.5,41.2-55,46.2c-21.9,4.3-45.5-13.3-44.7-23.6c0.8-11.6,15.4-10.4,22.2,2.2
		c10.5,19.3,49.3,7.5,64.6-18.2L136.5,165.7z"/>
	<path class="st5" d="M57.4,76.1c-0.1,0.1-0.3,0.2-0.4,0.3c0.2-0.1,0.4-0.1,0.7-0.2C57.5,76.2,57.5,76.2,57.4,76.1"/>
	<path class="st5" d="M72.1,74.4c-0.2,0-0.4,0-0.7,0c-4.8-0.2-9.5,0.5-13.8,1.9C63,79.2,67.8,77.3,72.1,74.4"/>
	<path class="st6" d="M101.2,174.5c8.1,1,21.5,0,35.3-8.8c24.9-15.8,24.5-67.7,17.6-89.6c-6.9-21.9-22.3-37.1-44.2-38.6
		C88,36,69.3,45,59.1,59.9c-6.9,10.1-2.3,15.9,0.7,17.3c2.9,1.4,15.8-3.1,19.7-9.6c8.4,5.6,18.2,3.7,26.6,1.3l15.8,5.2
		c-12.5-5.5-28.5-3.1-37.1,4c-8.6,7-3.1,12.5,3.2,13.4c6.3,0.9,18.8-4.3,28.4-1.9c9.6,2.4,12.4,6,22.4,15.7c0,0,4.8,22.8-1.2,31.3
		c-9.6-6-27.6-0.3-33.3,11.6L101.2,174.5z"/>
	<path d="M104.8,149.1c-0.2,0-0.4-0.1-0.7-0.2c-0.7-0.4-1-1.3-0.6-2c4.3-8,12.1-13,21.3-13.6c7.6-0.5,15.1,2.2,18.1,6.5
		c0.5,0.7,0.3,1.6-0.3,2.1c-0.7,0.5-1.6,0.3-2.1-0.3c-2.5-3.4-9-5.6-15.5-5.2c-4.8,0.3-13.6,2.3-18.8,12
		C105.9,148.8,105.3,149.1,104.8,149.1"/>
	<path d="M104.7,176.3c-1.5-0.1-2.7-0.2-3.7-0.3c-0.8-0.1-1.4-0.9-1.3-1.7c0.1-0.8,0.9-1.4,1.7-1.3c5.2,0.7,19,1.1,34.3-8.5
		c24-15.3,23.8-66.1,17-87.9c-7-22.5-22.7-36.2-42.9-37.6c-20.7-1.4-39.2,6.8-49.4,21.8c-2.8,4.1-3.9,7.9-3.1,11
		c0.6,2.2,2.1,3.6,3.2,4.2c1.9,0.9,14-2.8,17.7-9c0.2-0.4,0.6-0.6,1-0.7c0.4-0.1,0.8,0,1.2,0.2c8,5.3,17.3,3.4,25.4,1.1
		c0.8-0.2,1.6,0.2,1.8,1c0.2,0.8-0.2,1.6-1,1.8c-8.9,2.5-18.3,4.1-26.6-0.7c-5,6.4-17.1,10.7-20.7,8.9c-1.7-0.9-3.9-2.9-4.8-6.1
		c-0.7-2.7-0.7-7.3,3.5-13.4C68.8,43.2,88.3,34.6,110,36c21.5,1.5,38.1,15.9,45.5,39.6c3.2,10.3,5.4,29,3.2,47.7
		c-1.8,14.8-7,34.4-21.4,43.6C124,175.4,111.7,176.5,104.7,176.3"/>
	<path class="st4" d="M135.5,47.8c-6-0.7-1.5,3.9,0.4,5.7c1.9,1.7,15.8,15.2,29.2,11.7c13.5-3.5,17.8-14.3,15.2-15.1
		C177.7,49.4,147.8,49.2,135.5,47.8"/>
	<path d="M134.2,49.2c0.4,0.7,1.3,1.8,2.8,3.1l0.4,0.3c10.1,9.3,17.8,11.4,22.6,11.6c1.7,0.1,3.3-0.1,4.9-0.5
		c7.4-1.9,12-6.3,13.9-9.7c0.7-1.3,0.9-2.1,0.9-2.5c-1-0.1-3.6-0.3-7.7-0.4c-2.2-0.1-4.7-0.2-7.4-0.2c-3-0.1-6.2-0.2-9.5-0.3
		c-6-0.2-14.5-0.6-19.8-1.2C134.9,49.2,134.5,49.2,134.2,49.2 M159.8,67.3L159.8,67.3c-5.2-0.2-13.7-2.5-24.5-12.4l-0.4-0.3
		c-4.7-4.3-4-6.1-3.8-6.7c0.5-1.2,1.7-1.7,3.5-1.6c0.3,0,0.6,0,1,0.1c5.2,0.6,13.6,1,19.5,1.2c3.2,0.1,6.4,0.2,9.5,0.3
		c2.7,0.1,5.2,0.2,7.4,0.2c6.3,0.2,8.1,0.4,8.8,0.6c1.1,0.3,1.8,1.4,1.8,2.8c0,3.6-5.3,12.1-17.1,15.2
		C163.7,67.1,161.8,67.3,159.8,67.3"/>
	<path d="M47.7,74.5c-3.4-0.1-5-1.2-5.8-2.1c-0.9-0.9-1.1-2.1-0.8-3.2c0.4-1.1,1.3-1.8,2.5-2c2.6-0.5,10.5-4.6,14.6-8.4
		c0.6-0.6,1.6-0.5,2.1,0.1c0.6,0.6,0.5,1.6-0.1,2.1c-4.3,4-12.7,8.5-16.1,9.1c-0.1,0-0.2,0.1-0.2,0.1c0,0,0.1,0.2,0.4,0.4
		c0.6,0.4,3.1,1.8,10.3,0c0.8-0.2,1.6,0.3,1.8,1.1c0.2,0.8-0.3,1.6-1.1,1.8C52.1,74.3,49.6,74.6,47.7,74.5"/>
	<path d="M77.2,59c-2.4,1.7-1.8,3.9,0.8,4.4c2.7,0.4,2.8,0.6,5.4-1.1c2.7-1.9,3.2-5.2,0.2-5C80.5,57.4,78.5,58,77.2,59"/>
	<path d="M70.1,60c-0.1,1.7-1.4,2.9-3.1,2.9c-1.7-0.1-2.9-1.4-2.9-3.1c0.1-1.6,1.4-2.9,3.1-2.9C68.9,57,70.2,58.4,70.1,60"/>
	<path d="M105,53c-0.1,1.7-1.5,2.9-3.1,2.9c-1.7-0.1-2.9-1.4-2.9-3.1c0.1-1.6,1.4-2.9,3.1-2.9C103.8,50,105.1,51.3,105,53"/>
	<path d="M73.1,214.1c-11.6-0.4-22.9-5.8-29.9-12c-5.3-4.7-8.2-9.8-8-13.9c0.3-4.9,2.9-8.3,7.2-9.2c5.3-1.2,13.2,2.1,17.9,10.7
		c3.9,7.1,11.3,8.7,16.8,8.8c16.4,0.3,35.9-11.3,45.2-27.1c0.4-0.7,1.3-0.9,2.1-0.5c0.7,0.4,0.9,1.3,0.5,2.1
		c-9.8,16.6-30.4,28.9-47.8,28.5c-9-0.2-15.8-3.8-19.4-10.3c-4-7.3-10.4-10.2-14.6-9.2c-2.9,0.6-4.6,2.9-4.8,6.5
		c-0.2,3.1,2.4,7.4,6.9,11.4c8.2,7.2,22.5,13.3,36,10.7c24.8-4.9,47.4-23.9,53.9-45.2c0.2-0.8,1.1-1.2,1.9-1c0.8,0.2,1.2,1.1,1,1.9
		c-6.7,22.3-30.3,42.2-56.1,47.3C78.9,214,76,214.2,73.1,214.1"/>
	<path d="M141.9,109.5c-0.4,0-0.7-0.2-1-0.4l-1.1-1.1c-9.3-9.1-15-14.6-23.8-16.8c-5.3-1.3-11.7-0.1-17.4,0.9
		c-4.3,0.8-8,1.5-10.9,1.1c-4.4-0.6-7.8-3.1-8.7-6.2c-0.6-2.2-0.3-5.7,4.8-9.9c9.4-7.7,26.4-9.5,38.7-4.2c0.8,0.3,1.1,1.2,0.8,2
		c-0.3,0.8-1.2,1.1-2,0.8c-11.3-5-26.9-3.3-35.6,3.7c-3,2.4-4.3,4.8-3.8,6.7c0.6,2,3,3.6,6.2,4.1c2.4,0.3,6-0.3,9.9-1
		c6-1.1,12.7-2.3,18.6-0.9c9.6,2.4,15.8,8.4,25.2,17.5l1.1,1.1c0.6,0.6,0.6,1.5,0,2.1C142.7,109.3,142.3,109.5,141.9,109.5"/>
	<path class="st6" d="M34.8,132.3c-7.9-6.5-17.3-1.3-15.6,8.4c1.3,8,14.2,23.2,23.7,25.8c8.2,2.3,6.9-6.7,5.7-9.8
		C46.4,151.4,39,135.8,34.8,132.3"/>
	<path d="M27.8,130.9c-2.1-0.1-4.1,0.7-5.4,2.3c-1.6,1.8-2.2,4.4-1.7,7.3c1.3,7.4,13.8,22.2,22.6,24.7c0.7,0.2,1.3,0.3,1.8,0.3
		c1.4,0.1,1.9-0.5,2.2-0.9c1.1-1.6,0.7-5.2-0.1-7.2c-2.2-5.7-9.5-20.7-13.3-23.9C31.9,131.9,29.8,131,27.8,130.9 M45,168.4L45,168.4
		c-0.8,0-1.6-0.2-2.5-0.4c-10-2.8-23.3-18.5-24.8-27c-0.6-3.8,0.2-7.3,2.4-9.8c1.9-2.2,4.8-3.4,7.8-3.3c2.7,0.1,5.4,1.2,7.9,3.3
		c4.8,4,12.5,20.9,14.2,25.1c0.7,1.7,2,6.9-0.2,10.1C49,167.3,47.6,168.5,45,168.4"/>
	<path class="st6" d="M104,169.2c0,0-2.4,11.6-13.4,11.2c-11-0.4-5.8-13.5-6.8-22.2c-1-8.7-5.9-20.2,2.3-25.2c8.2-5,17.2,11,18.7,17
		C106.8,158,106.3,162.9,104,169.2"/>
	<path d="M89.5,133.9c-0.8,0-1.6,0.2-2.4,0.7c-4.8,3-4.1,8.7-2.4,17.1c0.4,2.1,0.8,4.2,1.1,6.2c0.3,2.6,0.1,5.5-0.1,8.3
		c-0.3,4.3-0.6,8.8,1.2,10.8c0.8,0.9,2,1.3,3.8,1.4c9.1,0.3,11.3-9.2,11.4-9.6c0-0.1,0-0.2,0.1-0.3c2-5.6,2.7-10.1,0.7-18.1
		C101.5,145,94.9,134.1,89.5,133.9 M90.6,182.3c-2.9-0.1-5.1-1-6.7-2.7c-2.9-3.3-2.6-8.6-2.2-13.7c0.2-2.6,0.4-5.3,0.1-7.5
		c-0.2-1.8-0.6-3.8-1-5.9c-1.6-7.8-3.3-16.6,4.2-21.3c1.5-0.9,3-1.3,4.6-1.2c8.7,0.3,15.8,14.3,17,19.5c2.2,8.9,1.4,14.2-0.7,20.3
		C104.9,174.3,100.5,182.7,90.6,182.3"/>
	<path class="st6" d="M54.2,77.1c-3.3-1.5-11.8,3.9-11,9.3c0.8,5.4,6.8,5.6,10.9,1.7C58.2,84.2,57.3,78.5,54.2,77.1"/>
	<path d="M53,78.3c-1.6-0.1-4.6,1.3-6.6,3.5c-0.7,0.8-1.9,2.5-1.7,4.2c0.4,2.5,2,3,3.2,3.1c1.7,0.1,3.6-0.8,5.2-2.2
		c1.7-1.6,2.6-3.8,2.2-5.9c-0.2-1.3-0.9-2.3-1.7-2.7C53.4,78.4,53.2,78.3,53,78.3 M47.8,92.2L47.8,92.2c-3.3-0.1-5.6-2.3-6.1-5.6
		c-0.3-2.2,0.5-4.6,2.4-6.7c2.4-2.7,6.2-4.7,9-4.6c0.6,0,1.2,0.1,1.7,0.4c1.8,0.8,3.1,2.6,3.5,4.9c0.5,3-0.7,6.2-3.1,8.5
		C52.9,91.2,50.3,92.3,47.8,92.2"/>
	<path d="M137.6,138.1c-0.1,0-0.3,0-0.4-0.1c-0.8-0.3-1.2-1.1-0.9-1.9c1.6-4.7,2.5-9.6,2.7-14.6c0.2-5.6-0.5-11.1-2-16.3
		c-0.2-0.8,0.2-1.6,1-1.9c0.8-0.2,1.6,0.2,1.9,1c1.6,5.6,2.4,11.4,2.1,17.3c-0.2,5.3-1.1,10.5-2.8,15.4
		C138.9,137.7,138.3,138.1,137.6,138.1"/>
	<path d="M24,107.2c3.2-0.4,6.2,0.9,9,3.8"/>
	<path d="M32.8,112.5c-0.3,0-0.6-0.2-0.9-0.5c-2.4-2.6-5-3.6-7.7-3.3c-0.8,0.1-1.6-0.5-1.7-1.3c-0.1-0.8,0.5-1.6,1.3-1.7
		c3.7-0.5,7.2,1,10.3,4.2c0.6,0.6,0.6,1.6,0,2.2C33.7,112.4,33.2,112.5,32.8,112.5"/>
	<path d="M22.8,115.4c2.9-1.4,6.2-1.2,9.7,0.6"/>
	<path d="M22.6,116.9c-0.5-0.1-0.9-0.4-1.2-0.8c-0.4-0.8-0.1-1.7,0.7-2c3.4-1.6,7.1-1.4,11.1,0.7c0.8,0.4,1,1.3,0.7,2.1
		c-0.4,0.7-1.3,1-2.1,0.7c-3.1-1.6-5.9-1.8-8.3-0.6C23.2,116.9,22.9,116.9,22.6,116.9"/>
	<path class="st0" d="M138.6,121.8c0,0,10.1-4.7,18.2-1.9c10.3,3.6,6.1,28.7-2.9,27.6c-10.1-1.2-21.1-15.3-21.1-15.3"/>
	<path d="M153.7,148.9c-10.5-1.3-21.6-15.3-22.1-15.9c-0.5-0.6-0.4-1.5,0.2-2c0.6-0.5,1.5-0.4,2,0.2c0.1,0.1,10.8,13.7,20.2,14.8
		c0,0,0,0,0,0c3.2,0.4,5.7-4,6.7-8.6c1.5-6.7,0.3-14.6-4.4-16.3c-7.5-2.6-15.9,0.9-16,0.9c-0.7,0.3-1.5,0-1.8-0.7
		c-0.3-0.7,0-1.5,0.7-1.8c0.4-0.2,9.4-4,18-1c6.5,2.3,8.1,11.6,6.2,19.6C161.9,145.2,158.1,149.4,153.7,148.9
		C153.7,148.9,153.7,148.9,153.7,148.9"/>
	<path d="M153.6,129.6c-0.2,0-0.3,0-0.5-0.1c-3-1.6-6.2-2.2-9.3-1.9c-0.7,0.1-1.3-0.4-1.3-1.1c-0.1-0.7,0.4-1.3,1.1-1.3
		c3.6-0.3,7.2,0.4,10.6,2.1c0.6,0.3,0.8,1,0.5,1.6C154.5,129.4,154,129.6,153.6,129.6"/>
	<path class="st0" d="M56.7,104.1c-0.2,4.3-3,7.7-6.4,7.5c-3.4-0.1-6-3.7-5.8-8c0.2-4.3,3-7.7,6.4-7.5
		C54.3,96.2,56.9,99.8,56.7,104.1"/>
	<path d="M151.5,137.8c-0.3,0-0.6-0.1-0.8-0.3c-2.6-2.4-5.7-4.1-9-4.9c-0.6-0.2-1-0.8-0.9-1.5c0.2-0.6,0.8-1,1.5-0.9
		c3.8,0.9,7.2,2.8,10.1,5.5c0.5,0.5,0.5,1.2,0.1,1.7C152.2,137.7,151.8,137.8,151.5,137.8"/>
	<path class="st0" d="M104.1,107c-1.2,4.8-5.6,7.8-9.8,6.7c-4.2-1.1-6.6-5.8-5.4-10.6c1.2-4.8,5.6-7.8,9.8-6.7
		C102.9,97.5,105.3,102.2,104.1,107"/>
	<path d="M53.8,104.3c0,2.6-1.5,4.7-3.5,4.7c-2,0-3.6-2.1-3.6-4.6c0-2.6,1.5-4.7,3.5-4.7C52.2,99.6,53.8,101.7,53.8,104.3"/>
	<path d="M100.5,106.5c-0.6,2.8-3.1,4.7-5.4,4.1c-2.3-0.5-3.7-3.3-3.1-6.1c0.6-2.8,3.1-4.7,5.4-4.1
		C99.8,101,101.2,103.7,100.5,106.5"/>
</g>
</svg>
